<svg width="2496" height="2741" viewBox="0 0 2496 2741" fill="none" xmlns="http://www.w3.org/2000/svg">
<g clip-path="url(#clip0_6_1200)">
<path d="M1666 813.9C1666 813.9 1523 829.9 1086 1460.7C956 1648.4 894.6 1439.6 716 1585.7C537.4 1731.8 279.7 1239.5 402.8 928.5C525.9 617.5 53.9 419.6 306.8 316.2C559.7 212.8 484.8 -104.2 830.5 34.6C1176.2 173.4 1774.5 396.4 1666 813.9Z" fill="#525F7B"/>
<path opacity="0.8" d="M1416 969.9C1416 969.9 1244.5 1230.4 1123 1272.9C979.1 1323.2 737 1099.9 459 1294.9C181 1489.9 26 1394.9 2 1151.9" stroke="#525F7B" stroke-width="4" stroke-miterlimit="10"/>
<path d="M2308 1949.9C2308 1949.9 2017 1622.9 1716 1815.9C1415 2008.9 1337 2192.9 1337 2192.9C1337 2192.9 1326 2326.9 1176 2315.9C1026 2304.9 919 2337.9 909 2381.9C899 2425.9 994 2551.9 1108 2601.9C1222 2651.9 1392 2779.9 1543 2728.9C1694 2677.9 2470 2788.9 2494 2455.9C2518 2122.9 2308 1949.9 2308 1949.9Z" fill="#B3BCD0" fill-opacity="0.4"/>
<path d="M1618 1034.9C1605.9 1041.7 1081 1433.9 1160 1545.9C1239 1657.9 1362 1533.9 1438 1525.9C1514 1517.9 1425 1594.9 1608 1628.9C1791 1662.9 2191 1734.9 2277 1491.9C2363 1248.9 2180 991.9 2180 991.9C2180 991.9 2052 790.9 1618 1034.9Z" fill="#B3BCD0" fill-opacity="0.4"/>
<g opacity="0.7">
<path opacity="0.7" d="M2007.7 1560.9C1938.1 1561.6 1851.8 1564.6 1800.7 1613.9C1766.7 1646.7 1761.9 1709.2 1752.4 1752.8C1739.9 1810.1 1729.6 1868 1726.6 1926.7C1722.6 2005.9 1759.2 2042.9 1835.6 2053.6C1902.4 2063 1969.4 2071.9 2036.7 2076.4C2087.9 2079.8 2143.9 2088.7 2193.7 2071.8C2244.2 2054.6 2265.4 2007.1 2274.6 1957.5C2286.1 1895.4 2291.5 1832.4 2300.7 1770C2308.7 1715.7 2304.7 1654.9 2256.7 1619.8C2190.4 1571.4 2104 1560.2 2024 1560.9C2018.7 1560.8 2013.3 1560.9 2007.7 1560.9Z" fill="#525F7B"/>
</g>
<path opacity="0.63" d="M251.6 2278.4C310 2279.3 364.2 2275 384.1 2274.9C545.9 2273.8 707.6 2275 869.4 2276C878.1 2276.1 887.4 2275.9 894.6 2271C900.8 2266.8 904.3 2259.7 907.4 2252.8C927.9 2207.2 955.2 2148.7 943.1 2097.4C920.5 2002 758.2 2023.2 685.4 2019C571.2 2012.5 457 2010.6 342.7 2011.5C277.9 2012 174.8 1989.6 122.5 2038.4C82.4 2075.8 72.6999 2139.6 62.5999 2190.8C48.4999 2261.5 155.8 2276.9 251.6 2278.4Z" fill="#020B44"/>
<path opacity="0.7" d="M160.4 1531.3C162.7 1525.4 504.5 1378 612.5 1410.2C720.5 1442.3 831.5 1698.3 789.3 1753.1C747 1807.9 300.7 2023.8 214.9 1927.7C129.1 1831.7 116 1643.7 160.4 1531.3Z" fill="#525F7B"/>
<path d="M162.7 1746.7C196.2 1763 233.5 1757.3 269.3 1759.6C289.8 1760.9 310.7 1761.5 331.2 1759.9C352.4 1758.3 372.1 1760.1 393.2 1763.2C427.7 1768.4 460.5 1756.4 494.6 1754.3C536.6 1751.8 579 1755.4 621 1754.6C627.5 1754.5 627.5 1742.8 621 1742.6C579 1741.9 536.6 1742 494.6 1743.1C460.5 1744 424.1 1748.9 390.2 1742.9C351.8 1736.1 313.4 1742.7 274.8 1739.1C237.8 1735.6 201 1737.6 164 1735.5C158.1 1735.3 158.1 1744.5 162.7 1746.7Z" fill="#B3BCD0" fill-opacity="0.4"/>
<path d="M173.3 1706.2C193.1 1705.3 213.3 1709.4 233.3 1709.6C253.8 1709.7 274.2 1711.8 294.7 1712C315.2 1712.3 335.7 1712 356.2 1712.2C376.7 1712.4 396.7 1716.4 417.1 1717.9C457.3 1720.7 498.2 1718.4 538.4 1718.4C548 1718.4 558.5 1716.8 568 1717.9C575.3 1718.8 582.8 1721.3 590.1 1722.6C602.1 1724.6 620.4 1733.1 631.8 1724.6C641.8 1717.1 632.1 1697.9 622.6 1705.9C617.4 1710.3 604.9 1704.6 598.9 1704.1C591 1703.4 583.3 1703.1 575.5 1701.7C558.4 1698.8 540.1 1701 522.8 1701C483.6 1701 443.8 1703.6 404.7 1699.9C385.8 1698.1 367.8 1696 348.7 1696.1C327.1 1696.2 305.2 1697.8 283.5 1696.6C248 1694.6 207.1 1688.9 172.7 1702.1C171 1702.8 171.2 1706.3 173.3 1706.2Z" fill="#B3BCD0" fill-opacity="0.4"/>
<path d="M162.4 1676.8C184 1679.1 205 1673.7 226.6 1673C247.7 1672.3 268.8 1674 289.9 1672.8C333.7 1670.3 376.7 1664.3 420.7 1664.5C441.8 1664.6 463.1 1663.4 484.1 1665C502.2 1666.4 519.9 1671.5 538.1 1672.4C555.6 1673.3 572.9 1676.3 590.3 1678C609.4 1679.9 628.6 1684.7 647.7 1684.5C660.7 1684.3 660.6 1659.7 647.7 1660.6C611.4 1663.1 574.5 1651.7 538.1 1650.7C520 1650.2 502.2 1644.8 484.1 1643.6C463.1 1642.2 441.7 1643.4 420.7 1643.5C376.7 1643.6 333.7 1649.9 289.9 1652.7C269.7 1654 249.4 1652.5 229.2 1653.3C206.6 1654.2 184.7 1661.1 162.4 1664.6C155.9 1665.5 155.6 1676 162.4 1676.8Z" fill="#B3BCD0" fill-opacity="0.4"/>
<path d="M178 1625.1C199.2 1626.2 220 1628.2 241.3 1627.9C261.4 1627.6 281.6 1626.4 301.7 1625.8C341.5 1624.6 381.3 1625.4 421.1 1625.7C459 1626 496.6 1628 534.6 1628C555.4 1628 576.1 1628 596.9 1628.1C606.2 1628.1 615.6 1627.6 624.9 1628.1C634.7 1628.7 644.1 1631.9 653.9 1632.5C664.9 1633.2 665 1612.2 653.9 1612.2C634.9 1612 616 1609.2 596.9 1609.2C577.1 1609.2 557.2 1609.2 537.4 1609.3C498.5 1609.3 460 1607.5 421.1 1607.9C382.3 1608.3 343.4 1608.1 304.6 1609.9C262.3 1611.9 220.2 1617.3 178 1619.7C175 1619.8 175 1624.9 178 1625.1Z" fill="#B3BCD0" fill-opacity="0.4"/>
<path d="M176.5 1584.8C198.2 1586.3 219.9 1583.9 241.6 1584C263.9 1584.1 286.2 1584.5 308.5 1584.6C353.2 1584.7 397.9 1579.8 442.6 1581.4C484.5 1582.9 526.4 1585.2 568.2 1581.6C583.9 1580.2 598.5 1580 614.2 1582.4C628.8 1584.6 643.9 1587.9 658.6 1587.5C669.3 1587.2 669.3 1567.2 658.6 1567.8C628.9 1569.5 599.6 1558.7 569.6 1562.5C549.5 1565.1 528.5 1564.3 508.2 1564.6C486.1 1564.9 464.5 1563.5 442.5 1562.8C397.8 1561.4 353.1 1566.9 308.4 1567.1C287 1567.2 265.6 1566.7 244.3 1567.9C221.2 1569.2 199.3 1575 176.4 1578C172.9 1578.5 172.7 1584.6 176.5 1584.8Z" fill="#B3BCD0" fill-opacity="0.4"/>
<path d="M185.8 1542.1C226.8 1548 269.9 1545.9 311.2 1545.8C355.2 1545.7 398.6 1538.1 442.6 1539C464.2 1539.5 485.8 1537.2 507.4 1537.1C527.5 1537.1 547.4 1540.6 567.4 1540.8C586.3 1541 604.8 1545.1 623.5 1546.7C632.5 1547.5 640.6 1545.6 649.5 1547.4C657.5 1549 666 1548.2 674.1 1548.1C684.4 1548.1 684.4 1529 674.1 1529C665.6 1529 657.9 1529 649.6 1527.4C640.4 1525.6 631.4 1528.6 622.2 1527.3C604.6 1524.9 587.2 1521.8 569.5 1521.4C549.6 1521 530 1517.6 510.1 1517.7C487.6 1517.8 465.1 1519.9 442.5 1519.6C399.3 1519.1 356.9 1527 313.8 1527.6C291.9 1527.9 270.1 1527.5 248.2 1528.3C237.6 1528.7 226.8 1528.5 216.2 1529.7C205.9 1530.9 196 1534 185.7 1535.1C182.1 1535.7 182.2 1541.6 185.8 1542.1Z" fill="#B3BCD0" fill-opacity="0.4"/>
<path opacity="0.7" d="M1892.1 1971.2C1936.2 1938.2 1990.2 1919.1 2045.6 1917.8C2086 1916.8 2128 1925.4 2164 1942C2203.2 1960.1 2234.5 1987.1 2254.5 2020C2274.3 2052.7 2287.2 2088.1 2291.6 2122.3C2296.7 2161.8 2290.6 2197.5 2273.5 2228.4L2270.8 2226.9C2302.4 2169.9 2295.3 2093.2 2251.9 2021.6C2213.5 1958.3 2132.6 1918.8 2045.8 1921C1991 1922.4 1937.7 1941.2 1894.1 1973.8C1882 1982.8 1870.7 1993 1860.3 2004C1828.5 2037.9 1808.1 2079.7 1788.5 2120.1C1773.5 2151 1758 2182.9 1737.3 2211.3C1711.9 2246.2 1679.7 2274.7 1641.6 2296C1604.3 2316.7 1563.3 2329.5 1519.6 2334.1L1519.3 2331C1606.7 2322 1685.3 2277.7 1734.8 2209.6C1755.2 2181.4 1770.7 2149.6 1785.7 2118.8C1805.4 2078.2 1825.9 2036.2 1858 2001.9C1868.4 1990.5 1879.9 1980.3 1892.1 1971.2Z" fill="#525F7B"/>
<g opacity="0.8">
<path opacity="0.8" d="M1539.2 2039.8C1538.2 2036.4 1537.3 2032.7 1537.9 2029.2C1538.5 2025.7 1541 2022.2 1544.5 2021.5C1549.5 2020.5 1553.8 2025.3 1556.2 2029.8C1560.7 2038.1 1563.3 2047.2 1565.9 2056.3C1568.8 2066.5 1584.8 2107.4 1564 2087C1551.9 2075.2 1544 2055.7 1539.2 2039.8Z" fill="#525F7B"/>
<path opacity="0.8" d="M1560.4 1990.4C1559.3 1978.8 1558.5 1966 1565.5 1956.7C1567 1954.7 1569.2 1952.8 1571.7 1952.7C1576.5 1952.5 1579.1 1958.3 1579.8 1963.1C1582.9 1983.4 1581.3 2026.9 1569.6 2044.1C1562.7 2027.8 1562.1 2008 1560.4 1990.4Z" fill="#525F7B"/>
<path opacity="0.8" d="M1584.2 2027.8C1586.5 2011.8 1589.6 1995.3 1598.9 1982.1C1600.5 1979.8 1603.4 1977.4 1605.7 1979C1606.4 1979.5 1606.9 1980.4 1607.3 1981.2C1610.7 1989.1 1608.4 1998.1 1605.9 2006.3C1598.7 2030.2 1592.1 2058.6 1579.5 2080.1C1578.9 2062.9 1581.8 2044.9 1584.2 2027.8Z" fill="#525F7B"/>
<path opacity="0.8" d="M1594.9 2135.2C1595.5 2121.8 1596.9 2106.6 1607.6 2098.4C1609.1 2097.3 1610.9 2096.3 1612.7 2096.8C1614.8 2097.5 1615.7 2099.9 1616 2102.1C1617.4 2111 1614.8 2120 1612.3 2128.6C1605.8 2150.6 1599.4 2172.6 1592.8 2194.6C1592 2175.1 1594.9 2155 1594.9 2135.2Z" fill="#525F7B"/>
<path opacity="0.8" d="M1561.3 2167.8C1566.3 2165.5 1572.5 2168.6 1575.6 2173.2C1578.6 2177.8 1579.4 2183.6 1580.3 2189C1582.4 2201.8 1585.4 2214.7 1590.4 2226.7C1587.7 2221.6 1552.7 2171.8 1561.3 2167.8Z" fill="#525F7B"/>
<path opacity="0.8" d="M1608.9 2284.8C1610.3 2269.7 1612 2253.9 1620.3 2241.3C1622.6 2237.8 1627 2234.3 1630.7 2236.3C1632.7 2237.4 1633.6 2239.8 1634.1 2242C1637.8 2257.6 1631.9 2273.6 1626.7 2288.7C1617.2 2316.5 1611.1 2345.1 1602.7 2373.2C1598.1 2362.4 1603.3 2344.4 1604.4 2332.8C1605.9 2316.8 1607.4 2300.8 1608.9 2284.8Z" fill="#525F7B"/>
<path opacity="0.8" d="M1579.8 2357.5C1569.9 2339.1 1561.9 2319.5 1558.6 2298.9C1557.8 2294.2 1557.4 2289.2 1559.3 2284.8C1561.2 2280.4 1566.3 2277.2 1570.8 2278.9C1574.2 2280.2 1576.1 2283.8 1577.5 2287.1C1589.4 2315.9 1590.9 2350.1 1597.5 2380.4C1589.7 2380.9 1583.3 2364 1579.8 2357.5Z" fill="#525F7B"/>
<path opacity="0.8" d="M1662.1 2075.6C1654.4 2062.4 1645 2049.7 1640.8 2034.9C1638.8 2027.7 1638.1 2020.2 1637.8 2012.7C1637.6 2006.3 1637.7 1999.6 1640.5 1993.8C1643.3 1988 1649.4 1983.3 1655.7 1984.2C1660.8 1984.9 1664.9 1988.8 1667.2 1993.4C1669.5 1998 1670.2 2003.1 1670.9 2008.2C1675.9 2044 1680.4 2080.1 1673.8 2116.1C1675.4 2101.7 1669.3 2087.8 1662.1 2075.6Z" fill="#525F7B"/>
<path opacity="0.8" d="M1690 2117.6C1695 2098.2 1700.4 2078.1 1713.3 2062.8C1715.3 2060.4 1718.1 2057.9 1721.2 2058.3C1724.9 2058.7 1727 2062.9 1727.4 2066.6C1728.5 2075.5 1724.5 2084.1 1720.6 2092.1C1710 2113.8 1698.7 2142.2 1679.9 2157.9C1681.8 2144.4 1686.6 2130.7 1690 2117.6Z" fill="#525F7B"/>
<path opacity="0.8" d="M1650.1 2217.7C1643.1 2203.1 1638.9 2187.2 1637.7 2171C1637.5 2168.6 1637.6 2165.7 1639.6 2164.3C1642.8 2162.1 1646.7 2165.7 1648.7 2169C1663.8 2194.4 1671.9 2231.1 1670.6 2260C1665.9 2244.9 1656.9 2231.9 1650.1 2217.7Z" fill="#525F7B"/>
<path opacity="0.8" d="M1688.2 2306.8C1694.6 2281.4 1701.8 2254.6 1720.2 2235.9C1722.6 2233.4 1726.7 2231.1 1729.3 2233.4C1730.2 2234.2 1730.7 2235.5 1731 2236.7C1733.4 2245.8 1731.3 2255.7 1727.3 2264.2C1723.3 2272.8 1717.5 2280.3 1712.1 2288C1700.3 2304.7 1691.7 2322.8 1681.7 2340.4C1679.1 2330.8 1685.8 2316.4 1688.2 2306.8Z" fill="#525F7B"/>
<path opacity="0.8" d="M1657 2416.1C1646.4 2398.8 1640.4 2378.6 1639.9 2358.3C1639.8 2353.3 1640.4 2347.4 1644.8 2344.9C1648.4 2342.9 1653.1 2344.2 1656.1 2347.1C1659 2350 1660.5 2354 1661.6 2357.9C1668.7 2384.6 1659.4 2414.7 1670.6 2440.3C1667.6 2431.5 1661.8 2424.1 1657 2416.1Z" fill="#525F7B"/>
<g opacity="0.8">
<path opacity="0.8" d="M1674.8 2107.8C1671.1 2123.2 1671.8 2140.4 1671.2 2156.2C1670.5 2173.5 1670 2190.8 1669.8 2208.1C1669.4 2242.5 1669.7 2276.9 1670 2311.3C1670.3 2345.3 1670.4 2379.3 1670.8 2413.3C1671 2430.3 1671.7 2447.4 1672 2464.4C1672.3 2480.3 1671.5 2496.7 1673.8 2512.4C1674.2 2515.1 1677.8 2514 1678.1 2511.8C1680.3 2495.1 1678.9 2477.5 1678.9 2460.7C1678.9 2443.7 1679.2 2426.6 1679 2409.6C1678.6 2376.8 1678.1 2344 1677.7 2311.2C1677.3 2278 1676.6 2244.9 1676.3 2211.7C1676.1 2194.4 1676 2177.1 1676.1 2159.8C1676.2 2142.8 1678.6 2124.8 1676.7 2107.9C1676.6 2107.1 1675 2106.6 1674.8 2107.8Z" fill="#525F7B"/>
</g>
<g opacity="0.8">
<path opacity="0.8" d="M1675.5 2182.8C1676.4 2177.6 1677.4 2172.3 1679 2167.3C1680.9 2161.6 1683.8 2156.6 1686.1 2151.1C1686.7 2149.8 1685 2148.1 1683.9 2149.4C1676.6 2158.2 1673.3 2171.4 1674 2182.6C1674.2 2183.4 1675.4 2183.6 1675.5 2182.8Z" fill="#525F7B"/>
</g>
<g opacity="0.8">
<path opacity="0.8" d="M1677 2359.1C1677.1 2354 1677.3 2349.2 1679 2344.4C1680.7 2339.5 1684 2335.9 1686.3 2331.5C1687.1 2330 1685.4 2328 1683.8 2329C1675 2334.9 1671.3 2349.7 1673.1 2359.6C1673.6 2361.8 1676.9 2361.2 1677 2359.1Z" fill="#525F7B"/>
</g>
<g opacity="0.8">
<path opacity="0.8" d="M1675.4 2457.7C1676.7 2451.8 1674.6 2445.2 1673 2439.5C1671.2 2433.1 1669 2425.8 1665.1 2420.4C1663.9 2418.7 1661 2419.6 1661.6 2421.9C1663.3 2428.4 1666.5 2434.4 1668.4 2440.8C1670.1 2446.4 1670.5 2452.8 1673.4 2458C1673.8 2458.8 1675.2 2458.6 1675.4 2457.7Z" fill="#525F7B"/>
</g>
<g opacity="0.8">
<path opacity="0.8" d="M1638.8 2484.8C1639 2484.8 1639 2484.5 1638.8 2484.5C1638.6 2484.5 1638.6 2484.8 1638.8 2484.8Z" fill="#525F7B"/>
</g>
<g opacity="0.8">
<path opacity="0.8" d="M1638.2 2474.5C1637.4 2472.4 1636.6 2470.3 1636 2468.2C1635.5 2466.5 1635.4 2464.5 1634.2 2463.2C1633.9 2462.9 1633.4 2463.1 1633.3 2463.6C1633.2 2465.3 1634.3 2466.7 1635 2468.2C1635.9 2470.4 1636.7 2472.6 1637.4 2474.8C1637.6 2475.2 1638.4 2475 1638.2 2474.5Z" fill="#525F7B"/>
</g>
<g opacity="0.8">
<path opacity="0.8" d="M1637.5 2519.8C1642.8 2508.2 1640.6 2492.7 1639.3 2480.4C1637.9 2468.1 1634.8 2456.3 1629.9 2444.9C1623.9 2431.1 1616.4 2417.9 1611.3 2403.7C1605.8 2388.5 1605.4 2372.8 1601.4 2357.4C1601.1 2356.1 1599 2356 1598.7 2357.4C1592.9 2382.7 1606.6 2411.2 1618.2 2432.9C1625.4 2446.2 1631.5 2459.6 1634.6 2474.5C1636.1 2481.7 1637 2489.2 1636.8 2496.6C1636.6 2504.1 1634.6 2511.7 1635.2 2519.2C1635.3 2520.3 1637 2521.1 1637.5 2519.8Z" fill="#525F7B"/>
</g>
<g opacity="0.8">
<path opacity="0.8" d="M1570.4 2053.3C1570.4 2054.6 1570.3 2056 1570.7 2057.3C1571 2058.3 1572.4 2058.3 1572.7 2057.3C1573.1 2056 1572.9 2054.6 1573 2053.3C1573 2051.7 1570.4 2051.7 1570.4 2053.3Z" fill="#525F7B"/>
</g>
<g opacity="0.8">
<path opacity="0.8" d="M1572.8 2035.6C1563.2 2091.1 1586.1 2144.4 1588.7 2199.6C1590.1 2228.5 1590.9 2257.4 1592.3 2286.3C1593.6 2314.4 1593.5 2343.7 1598.4 2371.5C1598.4 2371.7 1598.6 2371.6 1598.7 2371.5C1601.4 2343.5 1599.1 2314.4 1598.3 2286.4C1597.4 2257.5 1597.1 2228.5 1594.6 2199.7C1590 2145.2 1571.3 2090.9 1574.4 2035.9C1574.4 2035 1573 2034.8 1572.8 2035.6Z" fill="#525F7B"/>
</g>
</g>
<path d="M262.3 1127C267.8 1128.9 273.7 1129.4 279.5 1128.9C292.6 1127.8 305.2 1121.8 318 1119C345.8 1113 374.3 1112.3 402.6 1113.3C408.5 1113.5 417.2 1112.4 422.8 1114.7C433.4 1119.2 417.2 1121.7 413.6 1122.5C399.3 1125.5 384.8 1128.1 370.3 1130.1C339.9 1134.3 309.2 1135.8 278.6 1134C292.9 1142.7 306.8 1153.9 323.7 1156.4C341 1158.9 359.2 1157 376.7 1158C396.7 1159.1 416.7 1161.6 436.7 1164C454.1 1166 474.8 1165.5 490.6 1172.9C468 1183.6 440.3 1177.7 416.2 1175.8C388.4 1173.6 360.7 1171.2 333 1168.7C343 1176.4 352.6 1186.3 365.8 1187.4C378.2 1188.4 390.7 1186.9 403.1 1188.4C429.8 1191.5 451 1204.5 473.4 1218.2C479.2 1221.8 486.8 1225.2 491.7 1229.8C497.1 1234.9 493.7 1237.2 487.5 1236.4C482.2 1235.7 476.4 1232.4 471.4 1230.6C464.5 1228.1 457.7 1225.7 450.8 1223.3C424.2 1214 397.2 1205.8 370.3 1197.2C379.8 1205.5 389 1215 399.1 1222.6C410.2 1231 424.8 1233.5 437.9 1237.3C465 1245.3 491.7 1254.6 516 1269.4C522.2 1273.2 528.1 1277.2 533.9 1281.6C535.9 1283.1 545.5 1289.9 539 1292C535.3 1293.2 526.8 1288.2 522.9 1286.9C516.5 1284.7 510.1 1282.7 503.7 1280.6C478.1 1272.4 452.3 1264.1 429.1 1250.2C438.1 1261.3 447.1 1272.4 456.2 1283.4C463.4 1292.3 470.3 1304.3 481.7 1308C493.5 1311.8 505.8 1313.1 517.5 1317.9C529.7 1322.8 540.8 1330 550.7 1338.7C560.8 1347.6 570.4 1358 578.1 1369C586.9 1381.7 566.7 1370.9 562.4 1368.5C550 1361.5 537.6 1354.5 525.2 1347.5C514.1 1341.2 503.1 1333.9 491.2 1329.3C497.8 1341.8 504.3 1354.4 511 1366.8C517.5 1378.8 527.4 1387 535.2 1397.9C543.1 1408.9 545.8 1420.9 547.7 1434.1C549.4 1445.7 553.6 1460.7 550 1471.9C542.6 1463.3 538.3 1452.4 533.3 1442.3C528.7 1432.9 524.1 1423.5 520.4 1413.8C516.7 1404.3 514 1394.5 513.4 1384.4C512.8 1373.2 506.3 1364.8 500.8 1355.3C498.9 1366.7 498.8 1378.5 498.6 1390.1C498.4 1401.1 500.6 1412.1 498.5 1423.1C490.4 1415.8 486.9 1403 484 1392.5C481.1 1382.1 479.9 1371.1 481.5 1360.4C482.5 1354 484.9 1348.5 487 1342.5C489 1336.9 487.9 1334.1 484.6 1329.3C475.4 1315.8 465.6 1302.7 456.1 1289.4C461.9 1303.4 467 1317.8 469.1 1332.9C470.9 1345.9 474.6 1365.2 469 1377.1C461.4 1370.7 458.9 1361.6 455 1352.6C451.5 1344.4 448.4 1336.1 445.9 1327.6C440.8 1310.2 436 1291.1 437.3 1272.9C443 1288.1 444 1305 448.4 1320.7C452.3 1334.7 456.6 1355 467.4 1365.6C466.5 1350.2 466.2 1334.9 461.8 1319.9C457.9 1306.8 451.9 1294.4 445.1 1282.5C443 1278.7 439.4 1276.3 437.3 1273C435.8 1270.6 435.6 1267.2 434 1264.7C430 1258.2 423.2 1253.1 417.9 1247.6C405.8 1235.1 393.2 1223.4 380.4 1211.7C388.6 1233 405.6 1249.9 415.4 1270.7C424.2 1289.3 432.4 1310.1 432.5 1330.8C421.3 1317.6 413.4 1301.8 404.8 1286.8C396 1271.5 387.1 1256.1 379.2 1240.3C375.3 1232.4 371.8 1224.2 369.5 1215.7C367.4 1207.4 367.5 1201.7 360.7 1195.8C347.5 1184.3 332.7 1174.5 318.6 1164.2C327.5 1186.4 340.9 1204.8 354.4 1224.2C361.2 1233.9 366.7 1244.1 371.3 1255C375.2 1264.2 381.5 1274.6 379.2 1284.4C366.8 1277.2 358.3 1258.3 350.6 1246.3C343.2 1234.6 335.9 1222.8 329.7 1210.4C323.4 1197.7 319.6 1184.7 315.1 1171.3C310.1 1156.3 299.1 1151.2 286.3 1143.8C283.2 1142 268 1131.3 267.1 1135.7C266.5 1138.2 277.4 1149 279.3 1151.4C287.9 1162.1 296.7 1172 303.4 1184.1C315.4 1205.9 326.6 1236.5 323.8 1261.6C312.2 1258.2 305.9 1239.2 300.9 1229.5C294.3 1216.8 288.5 1203.7 282.6 1190.7C276.7 1177.8 271.2 1164.7 267 1151.1C265.3 1145.3 264.9 1135.3 260.7 1130.7C256.7 1126.3 247.6 1124.1 242.3 1121.8C247.9 1120.4 256.4 1125 262.3 1127ZM346.4 1231.7C354.5 1244.8 363.1 1257.5 371.9 1270.1C369.5 1254.2 360.3 1240.8 351.6 1227.8C346.6 1220.4 341.6 1213.1 336.5 1205.8C333.9 1202.1 325.7 1193.9 325.4 1190.3C325.8 1190.7 326.1 1191.1 326.5 1191.5C332.6 1205.4 338.4 1218.7 346.4 1231.7ZM539.2 1415.7C534.9 1404.1 526.4 1394.8 517.7 1386.3C519.3 1399.2 524.6 1410.1 529.7 1422.1C534 1432.1 538.1 1449.7 546.7 1456.3C546.5 1456.5 545.5 1456.9 546.6 1456.5C544.6 1443.1 544 1428.5 539.2 1415.7ZM334.1 1162.7C356.7 1166.8 379.6 1168.5 402.5 1170.5C423.9 1172.4 446.3 1176.6 467.4 1171.9C423.7 1169.3 379 1158.5 334.1 1162.7ZM293.3 1129.7C301.1 1132.3 313.3 1130.6 321.6 1130.4C332.4 1130.2 343.1 1128.7 353.7 1127.5C364.3 1126.3 374.8 1124.9 385.4 1123.5C390.7 1122.8 396 1122.1 401.3 1121.5C402.3 1121.4 409.6 1121.3 410.1 1120.4C411.8 1117.3 408.3 1118 406.8 1117.7C397.4 1115.8 386 1117.2 376.4 1117.3C367.1 1117.4 357.8 1117.8 348.6 1118.6C330.6 1120.1 310.9 1122.2 294.8 1130.6C294.3 1130.2 293.8 1129.9 293.3 1129.7ZM373.3 1193C376.6 1193.5 379.4 1195.9 382.5 1197.2C386.7 1199 391.3 1200.1 395.6 1201.5C404.7 1204.4 413.9 1207.3 423 1210.3C432.7 1213.4 442.4 1216.5 452.1 1219.6C459.6 1222 468.8 1226.5 476.4 1226.9C473.9 1226.9 469.8 1222.8 467.5 1221.1C463 1217.8 458.4 1214.6 453.6 1211.7C445.8 1207.1 437.7 1203 429.2 1199.8C412.5 1193.5 392.6 1189.5 375 1193.5C374.4 1193.3 373.9 1193.2 373.3 1193ZM504 1268.6C494.7 1263.4 485.1 1258.9 475.2 1254.9C456 1247.1 436 1241.6 416 1236.2C446 1261.4 486.4 1270.4 522.9 1282.1C518.4 1279.3 510.4 1272.2 504 1268.6ZM268.9 1146.2C283.1 1185.4 299.6 1220.6 320.3 1253.9C316.2 1212.8 301.5 1176.7 268.9 1146.2ZM480 1312.4C488 1326 508.8 1333.4 522 1340.8C538.2 1349.9 554.5 1358.9 570.8 1368C548.6 1337.6 517.6 1317.5 480 1312.4ZM421.5 1305.7C420.9 1285.8 401.9 1250.2 374.9 1218.2C386.2 1249.2 405 1276.2 421.5 1305.7ZM493.9 1407.3C493.7 1385.7 496.6 1363.9 492 1342.4C479.4 1364.7 484.5 1386.1 493.9 1407.3Z" fill="#B3BCD0"/>
<path d="M242.5 1121.1C239.7 1120 236.8 1118.9 234 1117.8C232.9 1121.4 240.4 1122.2 242.5 1121.1Z" fill="#B3BCD0"/>
<path d="M1474.5 2276.9C1471.5 2275 1472 2267.3 1473.2 2255C1473.7 2249.8 1474.2 2244.9 1473.9 2242.5C1471.8 2222.6 1465.7 2199.3 1457.9 2181.6C1453.9 2172.4 1450.5 2162.8 1447.3 2153.4C1442.7 2140.4 1438 2126.9 1431.6 2114.6C1425.4 2102.9 1417.4 2092.3 1407.8 2083.1C1405.2 2080.6 1402.6 2078 1399.9 2075.2C1393.7 2068.9 1387.3 2062.3 1380.7 2057.7C1355.1 2039.7 1309.1 2026.7 1278.2 2028.7L1270.5 2029.2C1241.9 2031 1212.3 2032.8 1185.4 2042C1165.6 2048.7 1140.3 2059 1119.4 2078.7L1116.4 2081.5C1104.2 2093.1 1091.5 2105.2 1078.3 2115.7C1076 2117.5 1073.7 2119.3 1071.4 2121C1063.6 2126.9 1055.6 2133 1049.4 2140.7C1016.4 2181.5 1016.3 2247.9 1017.1 2267.2L1014 2267.3C1013.2 2247.6 1013.3 2180.3 1047 2138.7C1053.4 2130.8 1061.6 2124.5 1069.5 2118.5C1071.8 2116.7 1074.1 2115 1076.3 2113.2C1089.4 2102.8 1102 2090.8 1114.2 2079.2L1117.2 2076.4C1138.4 2056.2 1164.2 2045.8 1184.3 2039C1211.6 2029.7 1241.4 2027.9 1270.2 2026.1L1277.9 2025.6C1309.4 2023.6 1356.2 2036.8 1382.3 2055.1C1389.1 2059.9 1395.7 2066.6 1402 2073C1404.7 2075.7 1407.3 2078.4 1409.8 2080.8C1419.7 2090.2 1427.9 2101.1 1434.2 2113.1C1440.8 2125.6 1445.5 2139.2 1450.1 2152.3C1453.3 2161.6 1456.7 2171.2 1460.7 2180.3C1468.5 2198.3 1474.7 2221.9 1476.9 2242.1C1477.2 2244.9 1476.7 2249.9 1476.2 2255.2C1475.6 2261.4 1474.5 2273 1476.1 2274.3L1474.5 2276.9Z" fill="#525F7B"/>
<path d="M1277 2254.9L1273.9 2254.8C1274.2 2245.6 1271.3 2237.2 1266.4 2232.3C1262.7 2228.7 1257.9 2227 1252.2 2227.3C1244.2 2227.7 1233 2232.9 1229.1 2239.8C1227.1 2243.4 1227.1 2247.1 1229.2 2250.9L1226.5 2252.3C1224 2247.6 1223.9 2242.7 1226.5 2238.2C1231 2230.1 1243.3 2224.6 1252.1 2224.1C1258.7 2223.7 1264.2 2225.7 1268.6 2229.9C1274.2 2235.7 1277.3 2244.7 1277 2254.9Z" fill="#525F7B"/>
<path d="M1299.7 2253.1L1296.7 2252.6C1298.3 2242.9 1290.9 2233.5 1285 2225.9C1284.2 2224.8 1283.4 2223.8 1282.6 2222.8C1273.5 2210.9 1264.2 2210.4 1247.9 2213.7C1238.5 2215.6 1213.6 2226.9 1207.9 2239.8C1206.2 2243.7 1206.4 2247.4 1208.5 2250.9L1205.9 2252.5C1203.3 2248.1 1203 2243.4 1205.1 2238.5C1211.1 2224.8 1236.1 2212.9 1247.3 2210.6C1264.5 2207.1 1275.1 2207.7 1285.1 2220.8C1285.8 2221.8 1286.6 2222.8 1287.4 2223.8C1293.7 2232 1301.6 2242.1 1299.7 2253.1Z" fill="#525F7B"/>
<path d="M1318.4 2261.2L1315.3 2261C1316.2 2247.5 1312.6 2231.5 1306 2219.3C1296.1 2201.1 1287.4 2192.5 1264.2 2193.3C1241.1 2194 1187.2 2201.6 1186.9 2257H1183.8C1184 2216.1 1213.3 2191.8 1264.1 2190.2C1288.7 2189.5 1298.5 2198.9 1308.7 2217.8C1315.6 2230.5 1319.3 2247.1 1318.4 2261.2Z" fill="#525F7B"/>
<path d="M1342.3 2268.7C1336.8 2244.2 1325.5 2220.9 1311.9 2206.4C1293.9 2187.1 1275.9 2181.3 1249.9 2186.6C1246.5 2187.3 1242.8 2187.9 1239 2188.6C1221.3 2191.8 1199.2 2195.7 1186.4 2206.1C1170.3 2219.3 1160.8 2240.6 1161 2263.2H1157.9C1157.6 2239.7 1167.5 2217.4 1184.4 2203.7C1197.9 2192.7 1220.3 2188.7 1238.4 2185.5C1242.2 2184.8 1245.9 2184.2 1249.3 2183.5C1276.6 2178 1295.4 2184 1314.2 2204.3C1328.1 2219.3 1339.8 2243.1 1345.3 2268.1L1342.3 2268.7Z" fill="#525F7B"/>
<path d="M1359 2269.1C1357.2 2265.7 1356.3 2261.2 1355.4 2256.9C1354.6 2252.9 1353.8 2248.9 1352.3 2245.6C1350 2240.6 1346.8 2235.5 1343.7 2230.6C1341.9 2227.7 1340 2224.7 1338.3 2221.7C1328.6 2204.7 1312.4 2181.4 1290.3 2167.6C1276.1 2158.7 1253.8 2158.5 1230.5 2167C1228 2167.9 1225.6 2168.8 1223 2169.7C1201.7 2177.3 1179.6 2185.1 1167.6 2204.5L1166.1 2206.9C1154.7 2225.1 1141.8 2245.7 1142.4 2267.3L1139.3 2267.4C1138.7 2244.9 1151.9 2223.8 1163.5 2205.3L1165 2202.9C1177.6 2182.6 1200.2 2174.6 1222 2166.9C1224.5 2166 1227 2165.1 1229.4 2164.2C1253.6 2155.4 1276.9 2155.7 1291.9 2165C1314.6 2179.2 1331.1 2202.9 1341 2220.2C1342.6 2223.1 1344.5 2226.1 1346.3 2229C1349.4 2234 1352.7 2239.1 1355.1 2244.3C1356.8 2247.9 1357.6 2252.1 1358.4 2256.3C1359.3 2260.6 1360.1 2264.7 1361.7 2267.7L1359 2269.1Z" fill="#525F7B"/>
<path d="M1379.1 2278.9C1378.2 2278.2 1377.5 2275.9 1374.8 2264.4C1373.9 2260.5 1373 2256.9 1372.4 2255C1370.9 2250 1369.7 2245.1 1368.6 2240.3C1366.2 2229.9 1364 2220.1 1358 2210.6C1334.4 2173 1313.5 2151.8 1294 2145.9C1274.8 2140 1243.7 2143.9 1222.9 2150.8C1191.8 2161.1 1162.2 2172.5 1142.4 2198.8C1135.6 2207.9 1132.2 2218.9 1129.3 2229.4C1126.5 2239.5 1122 2258.5 1122.6 2271.4L1119.5 2271.6C1118.8 2258.2 1123.5 2238.9 1126.3 2228.6C1129.3 2217.8 1132.7 2206.5 1139.9 2197C1160.1 2170 1191.5 2157.9 1221.8 2147.9C1243.1 2140.9 1275 2136.9 1294.8 2143C1315 2149.2 1336.5 2170.8 1360.5 2209C1366.8 2219 1369.1 2229 1371.5 2239.7C1372.6 2244.4 1373.7 2249.3 1375.2 2254.2C1375.8 2256.2 1376.7 2259.9 1377.6 2263.8C1378.7 2268.6 1380.4 2275.8 1381.1 2276.8L1379.1 2278.9Z" fill="#525F7B"/>
<path d="M1393.1 2276C1390.2 2265.8 1387.9 2254.7 1385.4 2243.1C1382.6 2229.4 1379.6 2215.3 1375.6 2202.6C1361.3 2157.6 1336.7 2129 1302.6 2117.7C1274.9 2108.5 1236.3 2125.3 1208.2 2137.5C1205.8 2138.6 1203.4 2139.6 1201.2 2140.5C1198.9 2141.5 1196.5 2142.5 1193.9 2143.6C1170 2153.6 1137.2 2167.4 1126.5 2189.6C1115.8 2211.7 1103.3 2248.1 1101 2275.7L1097.9 2275.4C1100.2 2247.3 1112.9 2210.5 1123.6 2188.2C1134.8 2164.9 1168.2 2150.9 1192.6 2140.7C1195.1 2139.6 1197.6 2138.6 1199.9 2137.6C1202.2 2136.6 1204.5 2135.6 1206.9 2134.6C1235.5 2122.2 1274.7 2105.1 1303.5 2114.7C1338.7 2126.4 1363.9 2155.6 1378.5 2201.6C1382.6 2214.5 1385.5 2228.7 1388.4 2242.4C1390.8 2254 1393.1 2265 1396 2275.1L1393.1 2276Z" fill="#525F7B"/>
<path d="M1406.5 2283.1L1406.1 2280.3C1401.7 2250.6 1397.6 2222.5 1386.9 2193.4L1385.2 2188.7C1379.8 2173.9 1374.7 2159.9 1364.3 2147.6C1353.6 2134.9 1342.2 2125.9 1329.5 2116.2L1328.9 2115.8C1316.7 2106.5 1308 2099.8 1292.2 2099.1C1274 2098.2 1256.1 2102.7 1238.8 2107L1233.1 2108.4C1195.9 2117.5 1144.9 2130.1 1114.9 2164.4C1113.3 2166.3 1111.5 2168.2 1109.6 2170.2C1103.8 2176.4 1097.9 2182.8 1094.6 2189.7C1092.5 2194.1 1091.8 2199.4 1091.1 2204.5C1090.6 2208.1 1090.1 2211.9 1089.1 2215.3C1087.9 2219.6 1086.4 2224.3 1084.8 2229.2C1079.8 2244.7 1074.2 2262.4 1074.9 2276.6L1071.8 2276.7C1071.1 2261.9 1076.8 2244 1081.9 2228.2C1083.5 2223.3 1084.9 2218.7 1086.2 2214.4C1087.1 2211.1 1087.6 2207.7 1088.1 2204C1088.8 2198.7 1089.6 2193.1 1091.9 2188.3C1095.3 2181 1101.5 2174.4 1107.4 2168C1109.2 2166.1 1111 2164.2 1112.6 2162.3C1143.2 2127.3 1194.7 2114.6 1232.3 2105.4L1238 2104C1255.5 2099.6 1273.6 2095.1 1292.3 2096C1309 2096.8 1318.1 2103.8 1330.7 2113.4L1331.3 2113.8C1344.1 2123.6 1355.6 2132.7 1366.6 2145.6C1377.4 2158.3 1382.5 2172.5 1388 2187.6L1389.7 2192.3C1400.5 2221.7 1404.7 2250 1409 2279.8L1409.4 2282.6L1406.5 2283.1Z" fill="#525F7B"/>
<path d="M1432.4 2285.4C1426.9 2268.2 1422.2 2250 1417.7 2232.5C1411.6 2208.9 1405.3 2184.4 1396.8 2161.5C1385.1 2129.5 1350.5 2097.8 1316.5 2087.7C1270.7 2074.1 1233.6 2074.8 1192.4 2090.1C1156.5 2103.4 1118.5 2127.6 1085.5 2158.2C1053.8 2187.6 1050.2 2230.5 1049.2 2275.6L1046.1 2275.5C1047.1 2229.7 1050.8 2186.1 1083.4 2155.9C1116.7 2125 1155.1 2100.6 1191.3 2087.1C1233.2 2071.6 1270.9 2070.8 1317.3 2084.6C1352.2 2095 1387.6 2127.5 1399.6 2160.3C1408.1 2183.4 1414.4 2207.9 1420.6 2231.6C1425.1 2249.1 1429.8 2267.3 1435.3 2284.4L1432.4 2285.4Z" fill="#525F7B"/>
<path d="M1450.1 2290.8C1446.9 2284.8 1446.7 2276.9 1446.5 2269.3C1446.4 2266.1 1446.3 2263 1446 2260.2C1444.7 2248 1441.5 2235.7 1438.4 2223.9C1437.7 2221.4 1437.1 2218.9 1436.5 2216.4C1435.6 2213.1 1434.8 2209.7 1434 2206.3C1428.6 2184.5 1423 2161.9 1410.5 2143.4C1406.2 2137 1403.6 2130.4 1401.1 2123.9C1399.8 2120.5 1398.4 2117 1396.8 2113.5C1391.9 2103 1381 2090.9 1375 2084.7C1350 2058.8 1308.7 2052 1292.1 2050.2C1280 2048.9 1267.8 2050.5 1256 2052.1C1253.2 2052.5 1250.5 2052.8 1247.7 2053.2C1241.8 2053.9 1235.9 2054.2 1230.1 2054.4C1220.9 2054.8 1211.4 2055.2 1202.4 2057.4C1176.1 2063.9 1155.3 2079.3 1140 2092C1131.7 2098.9 1124.3 2106.9 1117 2114.6C1107.3 2124.9 1097.3 2135.6 1085.2 2143.9C1072.8 2152.4 1063.3 2160.1 1054.5 2172.3C1047.5 2181.9 1045.7 2192.8 1043.7 2204.4C1042.9 2209 1042.2 2213.7 1041 2218.3C1039.2 2225.4 1038.6 2233.9 1038 2242C1037 2254.2 1036.1 2266.9 1031.4 2276.3L1028.7 2274.9C1033.1 2266 1034.1 2253.7 1035 2241.7C1035.6 2233.4 1036.3 2224.9 1038.1 2217.5C1039.2 2213 1040 2208.3 1040.7 2203.8C1042.6 2192.4 1044.5 2180.7 1052 2170.4C1061 2158 1071.1 2149.8 1083.5 2141.3C1095.3 2133.2 1105.2 2122.6 1114.8 2112.4C1122.1 2104.6 1129.6 2096.6 1138 2089.6C1153.5 2076.7 1174.7 2061.1 1201.6 2054.4C1210.9 2052.1 1220.6 2051.7 1229.9 2051.3C1235.6 2051.1 1241.5 2050.8 1247.3 2050.1C1250 2049.8 1252.8 2049.4 1255.5 2049C1267.4 2047.4 1279.8 2045.8 1292.3 2047.1C1309.2 2048.9 1351.4 2055.9 1377.1 2082.5C1383.3 2088.9 1394.4 2101.2 1399.5 2112.2C1401.2 2115.7 1402.5 2119.3 1403.9 2122.7C1406.5 2129.3 1408.9 2135.5 1413 2141.6C1425.8 2160.6 1431.5 2183.4 1436.9 2205.5C1437.7 2208.9 1438.6 2212.2 1439.4 2215.6C1440 2218.1 1440.7 2220.6 1441.3 2223C1444.4 2235 1447.7 2247.4 1449 2259.8C1449.3 2262.8 1449.4 2266 1449.5 2269.1C1449.7 2276.3 1449.9 2283.8 1452.7 2289.2L1450.1 2290.8Z" fill="#525F7B"/>
<g opacity="0.7">
<path opacity="0.7" d="M814.2 1260.1C780.7 1276.3 733.8 1309.9 711.5 1340.3C692.7 1365.9 689.6 1399.7 686.5 1430.4C679.6 1497 686.7 1563.1 752.3 1598.8C820 1635.6 948.8 1602.8 988.6 1537.5C1022.6 1481.7 1005.2 1396 979 1339.7C963.8 1306.9 922.1 1289.6 890.8 1274.8C882.2 1270.7 872.1 1267.3 862.9 1263.8C839.8 1254.7 839.8 1253.5 814.2 1260.1Z" fill="#525F7B"/>
</g>
<path opacity="0.8" d="M1693.6 1239.6C1613.7 1238.5 1592.8 1340.4 1599.7 1400.7C1606.4 1459.8 1691.5 1482.7 1739.2 1484.1C1833 1486.9 1940.9 1329.9 1849.5 1265.6C1810.1 1238.1 1712.2 1226.1 1693.6 1239.6Z" fill="#525F7B"/>
<path d="M1376.3 1748.4C1348.7 1807.5 1417.5 1857.1 1464.5 1872.2C1510.7 1887 1556.3 1831.4 1573.3 1796.5C1606.8 1727.7 1526.3 1594.9 1447.9 1641.3C1414.2 1661.2 1372.5 1730 1376.3 1748.4Z" fill="#B3BCD0"/>
<path d="M904.9 1370.2L904.8 1370.1L890.3 1352.5C889.2 1351.2 889.4 1349.2 890.7 1348.1C892 1347 894 1347.2 895.1 1348.5L909.6 1366.1C910.7 1367.4 910.5 1369.4 909.2 1370.5C907.9 1371.6 906 1371.5 904.9 1370.2Z" fill="#020B44"/>
<path d="M915.2 1354.4C914.1 1353.1 914.1 1351.2 915.4 1350C916.7 1348.8 918.6 1348.9 919.8 1350.1L937.1 1368.4C938.3 1369.7 938.2 1371.6 937 1372.8C935.7 1374 933.8 1373.9 932.6 1372.7L915.2 1354.4C915.3 1354.5 915.2 1354.5 915.2 1354.4Z" fill="#020B44"/>
<path d="M886.2 1382.8C885.1 1381.6 885.1 1379.8 886.2 1378.6C887.4 1377.3 889.4 1377.3 890.6 1378.4L908.5 1395.1C909.8 1396.3 909.8 1398.3 908.7 1399.5C907.5 1400.8 905.5 1400.8 904.3 1399.7L886.4 1383C886.3 1382.9 886.3 1382.9 886.2 1382.8Z" fill="#020B44"/>
<path d="M858.2 1393.6C857 1392.3 857.1 1390.3 858.4 1389.2C859.7 1388 861.6 1388.1 862.8 1389.3L862.9 1389.4L875.6 1403.2C876.8 1404.5 876.7 1406.4 875.4 1407.6C874.1 1408.8 872.1 1408.7 871 1407.4L858.2 1393.6Z" fill="#020B44"/>
<path d="M835.5 1404.6C834.3 1403.3 834.4 1401.4 835.7 1400.2C837 1399 839 1399.1 840.1 1400.4L847.6 1408.4C848.8 1409.7 848.7 1411.6 847.4 1412.8C846.1 1414 844.1 1413.9 843 1412.6L835.5 1404.6Z" fill="#020B44"/>
<path d="M797.3 1407.3C796.2 1406.1 796.2 1404.1 797.4 1403C798.6 1401.8 800.6 1401.8 801.8 1403L827.8 1429.3C829 1430.5 829 1432.5 827.8 1433.7C826.6 1434.9 824.6 1434.9 823.4 1433.7L797.3 1407.3C797.4 1407.4 797.4 1407.4 797.3 1407.3Z" fill="#020B44"/>
<path d="M797.4 1444.4C796.3 1443.2 796.3 1441.3 797.5 1440.1C798.7 1438.9 800.7 1438.8 801.9 1440L819.4 1457C820.6 1458.2 820.7 1460.2 819.5 1461.4C818.3 1462.6 816.3 1462.7 815.1 1461.5L797.6 1444.5C797.5 1444.5 797.4 1444.4 797.4 1444.4Z" fill="#020B44"/>
<path d="M765.5 1444.7C764.4 1443.5 764.4 1441.6 765.6 1440.4C766.8 1439.2 768.8 1439.2 770 1440.4L792.8 1463.2C794 1464.4 794 1466.4 792.8 1467.6C791.6 1468.8 789.6 1468.8 788.4 1467.6L765.6 1444.8L765.5 1444.7Z" fill="#020B44"/>
<path d="M937 1409.9C936.9 1409.8 936.8 1409.7 936.8 1409.6L924.9 1392.9C923.9 1391.5 924.2 1389.5 925.6 1388.5C927 1387.5 929 1387.8 930 1389.2L941.9 1405.9C942.9 1407.3 942.6 1409.3 941.2 1410.3C939.9 1411.3 938.1 1411.1 937 1409.9Z" fill="#020B44"/>
<path d="M952.1 1403.6C951 1402.4 951 1400.5 952.2 1399.3C953.4 1398.1 955.4 1398.1 956.6 1399.3L966.1 1408.7C967.3 1409.9 967.3 1411.9 966.1 1413.1C964.9 1414.3 962.9 1414.3 961.7 1413.1L952.2 1403.7C952.2 1403.7 952.2 1403.7 952.1 1403.6Z" fill="#020B44"/>
<path d="M944.6 1442.3C944.5 1442.2 944.4 1442.1 944.4 1442L927.3 1418.3C926.3 1416.9 926.6 1414.9 928 1413.9C929.4 1412.9 931.4 1413.2 932.4 1414.6L949.5 1438.3C950.5 1439.7 950.2 1441.7 948.8 1442.7C947.5 1443.7 945.7 1443.5 944.6 1442.3Z" fill="#020B44"/>
<path d="M919.6 1442.8L919.5 1442.7L906.4 1427C905.3 1425.7 905.5 1423.7 906.8 1422.6C908.1 1421.5 910.2 1421.8 911.2 1423L924.3 1438.7C925.4 1440 925.2 1442 923.9 1443.1C922.6 1444.1 920.7 1444 919.6 1442.8Z" fill="#020B44"/>
<path d="M883.8 1437C882.7 1435.8 882.7 1433.9 883.9 1432.7C885.1 1431.5 887.1 1431.5 888.3 1432.7L899.4 1443.8C900.7 1445 900.6 1447 899.4 1448.2C898.2 1449.4 896.2 1449.4 895 1448.2L883.9 1437.1C883.9 1437.1 883.8 1437.1 883.8 1437Z" fill="#020B44"/>
<path d="M869.7 1451.9L869.6 1451.8L861.7 1442C860.6 1440.6 860.8 1438.7 862.2 1437.6C863.6 1436.5 865.5 1436.7 866.6 1438.1L874.5 1447.9C875.6 1449.3 875.4 1451.2 874 1452.3C872.7 1453.3 870.8 1453.2 869.7 1451.9Z" fill="#020B44"/>
<path d="M846.5 1460.3C845.4 1459.1 845.4 1457.2 846.5 1456C847.7 1454.7 849.7 1454.7 850.9 1455.9L868.6 1472.7C869.9 1473.9 869.9 1475.9 868.7 1477.1C867.5 1478.4 865.5 1478.4 864.3 1477.2L846.6 1460.4C846.6 1460.4 846.5 1460.4 846.5 1460.3Z" fill="#020B44"/>
<path d="M839.2 1482.8L830.8 1473.5C829.6 1472.2 829.7 1470.2 831 1469.1C832.3 1467.9 834.3 1468 835.4 1469.3L843.8 1478.6C845 1479.9 844.9 1481.9 843.6 1483C842.4 1484.2 840.4 1484.1 839.2 1482.8Z" fill="#020B44"/>
<path d="M825.3 1503.9C825.3 1503.8 825.2 1503.8 825.2 1503.7L807 1481C805.9 1479.6 806.1 1477.7 807.5 1476.6C808.9 1475.5 810.8 1475.8 811.9 1477.1L830 1499.9C831.1 1501.3 830.9 1503.2 829.5 1504.3C828.3 1505.3 826.4 1505.1 825.3 1503.9Z" fill="#020B44"/>
<path d="M886.4 1473.9C885.3 1472.7 885.3 1470.9 886.4 1469.7C887.6 1468.4 889.5 1468.3 890.8 1469.5L909 1485.8C910.3 1487 910.4 1488.9 909.3 1490.2C908.1 1491.5 906.2 1491.6 904.9 1490.5L886.7 1474.2C886.5 1474.1 886.4 1474 886.4 1473.9Z" fill="#020B44"/>
<path d="M907.9 1466C906.8 1464.8 906.8 1463 907.9 1461.8C909 1460.5 911 1460.4 912.3 1461.5L928.3 1475.6C929.6 1476.7 929.7 1478.7 928.6 1480C927.5 1481.3 925.5 1481.4 924.2 1480.3L908.2 1466.2C908.1 1466.2 908 1466.1 907.9 1466Z" fill="#020B44"/>
<path d="M982.7 1465C982.6 1464.9 982.6 1464.9 982.5 1464.8L960.7 1436.9C959.6 1435.5 959.9 1433.6 961.2 1432.5C962.6 1431.4 964.6 1431.6 965.6 1433L987.4 1460.9C988.5 1462.3 988.2 1464.2 986.9 1465.3C985.7 1466.4 983.8 1466.2 982.7 1465Z" fill="#020B44"/>
<path d="M952.7 1458.3C951.6 1457.1 951.6 1455.2 952.8 1454C954 1452.8 956 1452.8 957.2 1454L967.8 1464.5C969 1465.7 969 1467.7 967.8 1468.9C966.6 1470.1 964.6 1470.1 963.4 1468.9L952.8 1458.4C952.8 1458.3 952.8 1458.3 952.7 1458.3Z" fill="#020B44"/>
<path d="M948.4 1482.3C947.3 1481.1 947.3 1479.1 948.5 1477.9C949.7 1476.7 951.7 1476.7 952.9 1478L966 1491.6C967.2 1492.8 967.2 1494.8 965.9 1496C964.7 1497.2 962.7 1497.2 961.5 1495.9L948.4 1482.3C948.5 1482.4 948.4 1482.3 948.4 1482.3Z" fill="#020B44"/>
<path d="M944.5 1529.4L925 1507.8C923.8 1506.5 923.9 1504.5 925.2 1503.4C926.5 1502.2 928.5 1502.3 929.6 1503.6L949.1 1525.2C950.3 1526.5 950.2 1528.5 948.9 1529.6C947.6 1530.8 945.6 1530.7 944.5 1529.4Z" fill="#020B44"/>
<path d="M873.6 1498.2C872.5 1496.9 872.5 1495 873.8 1493.8C875.1 1492.6 877 1492.7 878.2 1493.9L900.9 1517.8C902.1 1519 902 1521 900.8 1522.2C899.5 1523.4 897.6 1523.3 896.4 1522.1L873.6 1498.2C873.6 1498.3 873.6 1498.2 873.6 1498.2Z" fill="#020B44"/>
<path d="M846.3 1518.8C845.2 1517.6 845.2 1515.7 846.4 1514.5C847.6 1513.3 849.6 1513.3 850.8 1514.5L863 1526.8C864.2 1528 864.2 1530 863 1531.2C861.8 1532.4 859.8 1532.4 858.6 1531.2L846.4 1518.9C846.4 1518.8 846.4 1518.8 846.3 1518.8Z" fill="#020B44"/>
<path d="M837.9 1551.9C837.9 1551.8 837.9 1551.8 837.9 1551.9L817.7 1528.8C816.6 1527.5 816.7 1525.5 818 1524.4C819.3 1523.3 821.2 1523.5 822.4 1524.7L842.5 1547.8C843.6 1549.1 843.5 1551.1 842.2 1552.2C841 1553.2 839 1553.1 837.9 1551.9Z" fill="#020B44"/>
<path d="M896.4 1541.1C895.4 1540 895.3 1538.2 896.3 1537C897.4 1535.7 899.4 1535.5 900.7 1536.6L917.3 1550.2C918.6 1551.3 918.8 1553.3 917.7 1554.6C916.6 1555.9 914.6 1556.1 913.3 1555L896.7 1541.4C896.7 1541.3 896.5 1541.2 896.4 1541.1Z" fill="#020B44"/>
<path d="M874 1546.6C872.9 1545.4 872.9 1543.5 874.1 1542.3C875.3 1541.1 877.3 1541.1 878.5 1542.3L888.5 1552.3C889.7 1553.4 889.7 1555.5 888.5 1556.7C887.3 1557.9 885.3 1557.9 884.1 1556.7L874.1 1546.7C874.1 1546.7 874.1 1546.6 874 1546.6Z" fill="#020B44"/>
<path d="M945.3 1554.1L927.9 1534.9C926.7 1533.6 926.8 1531.6 928.1 1530.5C929.4 1529.4 931.4 1529.4 932.5 1530.7L949.9 1549.9C951.1 1551.2 951 1553.2 949.7 1554.3C948.4 1555.5 946.4 1555.4 945.3 1554.1Z" fill="#020B44"/>
<path d="M963.5 1520.6C962.4 1519.3 962.4 1517.4 963.6 1516.2C964.8 1515 966.8 1515 968 1516.3L981.6 1530.4C982.7 1531.7 982.8 1533.6 981.5 1534.8C980.3 1536 978.3 1536 977.1 1534.7L963.5 1520.6C963.5 1520.7 963.5 1520.6 963.5 1520.6Z" fill="#020B44"/>
<path d="M986.8 1489.9C985.7 1488.7 985.7 1486.7 986.9 1485.6C988.1 1484.4 990.1 1484.4 991.3 1485.6L1007.8 1502.4C1009.1 1503.7 1009 1505.6 1007.8 1506.8C1006.6 1508 1004.6 1508 1003.4 1506.8L986.8 1489.9C986.9 1489.9 986.9 1489.9 986.8 1489.9Z" fill="#020B44"/>
<path d="M1004.9 1473.5C1003.8 1472.3 1003.8 1470.3 1005 1469.1C1006.2 1467.9 1008.2 1467.9 1009.4 1469.2L1024.2 1484.4C1025.5 1485.6 1025.4 1487.6 1024.1 1488.8C1022.9 1490 1020.9 1490 1019.7 1488.7L1004.9 1473.5C1004.9 1473.6 1004.9 1473.5 1004.9 1473.5Z" fill="#020B44"/>
<path d="M997.9 1532.9C996.8 1531.7 996.8 1529.9 997.9 1528.7C999.1 1527.4 1001.1 1527.3 1002.3 1528.5L1014 1539.1C1015.3 1540.3 1015.4 1542.3 1014.2 1543.5C1013 1544.8 1011 1544.9 1009.8 1543.7L998.1 1533.1C998 1533.1 997.9 1533 997.9 1532.9Z" fill="#020B44"/>
<path d="M982.6 1563.7L970.5 1550.3C969.3 1549 969.4 1547 970.7 1545.9C972 1544.7 974 1544.8 975.1 1546.1L987.2 1559.5C988.4 1560.8 988.3 1562.8 987 1563.9C985.7 1565.1 983.8 1565 982.6 1563.7Z" fill="#020B44"/>
<path d="M941.6 1576.6C940.4 1575.3 940.5 1573.3 941.8 1572.2C943.1 1571 945 1571.1 946.2 1572.4L961.6 1589.2C962.8 1590.5 962.7 1592.5 961.4 1593.6C960.1 1594.8 958.1 1594.7 957 1593.4L941.6 1576.6Z" fill="#020B44"/>
<path d="M917.8 1581.1C916.7 1579.9 916.7 1578 917.9 1576.8C919.1 1575.6 921.1 1575.6 922.3 1576.8L934.6 1589C935.9 1590.1 935.8 1592.2 934.6 1593.4C933.4 1594.6 931.4 1594.6 930.2 1593.4L917.9 1581.2C917.9 1581.2 917.8 1581.2 917.8 1581.1Z" fill="#020B44"/>
<path d="M913 1600.4L912.9 1600.3L896.5 1580.1C895.4 1578.8 895.6 1576.8 897 1575.7C898.3 1574.6 900.3 1574.7 901.4 1576.2L917.8 1596.4C918.9 1597.7 918.7 1599.7 917.3 1600.8C916 1601.7 914.1 1601.6 913 1600.4Z" fill="#020B44"/>
<path d="M1016.2 1523.6C1015.2 1522.5 1015.1 1520.8 1016 1519.6C1017.1 1518.2 1019 1518 1020.4 1519L1030.5 1526.8C1031.9 1527.9 1032.1 1529.8 1031.1 1531.2C1030 1532.6 1028.1 1532.8 1026.7 1531.8L1016.6 1524C1016.5 1523.9 1016.3 1523.8 1016.2 1523.6Z" fill="#020B44"/>
<path d="M1476.7 1387.7C1478.3 1386.4 1479.8 1385.1 1481.2 1383.6C1482.8 1382 1484.7 1380.5 1485.7 1378.5C1488.8 1372.7 1482.3 1367.3 1477 1371.2C1475.2 1372.5 1474 1374.7 1472.6 1376.4C1471.4 1378.1 1470.2 1379.7 1469.2 1381.5C1466.6 1386.4 1472.4 1391.1 1476.7 1387.7Z" fill="#B3BCD0"/>
<path d="M1528.2 1376.6C1530.8 1376.4 1533.8 1374.8 1535.8 1373.2C1538 1371.4 1538.2 1368 1536.6 1365.7C1535 1363.3 1532 1362.6 1529.3 1363.8C1527 1364.9 1524.4 1367.2 1523.1 1369.3C1522.1 1370.9 1522.1 1373 1523.2 1374.5C1524.5 1376.3 1526.3 1376.8 1528.2 1376.6Z" fill="#B3BCD0"/>
<path d="M1518.8 1349.4C1520 1348.4 1521.1 1347.3 1522.1 1346.2C1523.3 1344.9 1524.8 1343.7 1525.6 1342.1C1526.8 1339.7 1526.7 1336.9 1524.5 1335.1C1522.4 1333.3 1519.5 1333.4 1517.4 1335.2C1515 1337.2 1513.3 1340.8 1511.8 1343.5C1509.4 1347.9 1514.8 1353 1518.8 1349.4Z" fill="#B3BCD0"/>
<path d="M1441.7 1353.9C1443.7 1353.4 1445.4 1352.6 1447.3 1351.8C1450.6 1350.3 1451.3 1345.7 1448.9 1343.1C1446.6 1340.5 1441.9 1340.7 1440.1 1343.8C1439.1 1345.5 1438.1 1347.2 1437.4 1349.1C1436.4 1351.7 1439 1354.5 1441.7 1353.9Z" fill="#B3BCD0"/>
<path d="M1406.2 1409.2C1406.7 1409.5 1407.2 1409.9 1407.9 1410.3C1409.1 1411 1410.1 1411.2 1411.5 1411.4C1413.9 1411.8 1415.8 1411.9 1418.1 1410.9C1422.3 1409.1 1421.6 1402.3 1417.3 1401.2C1414.9 1400.6 1413 1401 1410.7 1401.7C1409.5 1402.1 1408.5 1402.4 1407.5 1403.2C1407.1 1403.5 1406.8 1403.8 1406.5 1404.2C1405.4 1405.2 1406.9 1403.9 1405.8 1404.7C1404.3 1405.6 1404.6 1408.4 1406.2 1409.2Z" fill="#B3BCD0"/>
<path d="M1454.2 1460.5C1457.3 1461.6 1460.5 1463.2 1463.8 1462.6C1468.6 1461.8 1469.7 1455 1465.7 1452.5C1462.9 1450.7 1459.2 1451.1 1456 1450.9C1453.5 1450.8 1451.4 1452.5 1451 1454.9C1450.5 1457.4 1451.9 1459.7 1454.2 1460.5Z" fill="#B3BCD0"/>
<path d="M1487.4 1422.9C1488.1 1422.1 1485.9 1423.6 1485.8 1423.6C1485.5 1423.6 1485.2 1423.6 1485 1423.7C1485.4 1423.7 1485.4 1423.7 1484.9 1423.6C1484.6 1423.6 1484.3 1423.5 1484.1 1423.3C1483.7 1423.1 1483.6 1423 1483.8 1423.2C1484.2 1423.3 1484.7 1424.4 1483.4 1422.9C1485.3 1425.1 1488.7 1425.3 1491 1423.8C1493.4 1422.2 1494.2 1419.1 1492.9 1416.4C1490.1 1410.5 1480.7 1411.1 1478.9 1417.5C1478.3 1419.7 1479 1422.3 1481.1 1423.5C1482.9 1424.5 1485.8 1424.6 1487.4 1422.9Z" fill="#B3BCD0"/>
<path d="M1411.1 1465.7C1413 1464.6 1414.9 1463.6 1416.5 1462.1C1418.6 1460.2 1418.9 1456.5 1416.9 1454.5C1414.8 1452.4 1411.5 1452.1 1409.3 1454.1C1407.7 1455.6 1406.4 1457.3 1405.2 1459.1C1402.4 1462.7 1407.2 1468 1411.1 1465.7Z" fill="#B3BCD0"/>
<path d="M1362.6 1424.9C1368.1 1419.9 1360.4 1411.4 1354.9 1416.3C1349.3 1421.3 1357 1429.9 1362.6 1424.9Z" fill="#B3BCD0"/>
<path d="M1391.5 1365.6C1398 1359.8 1388.9 1349.7 1382.4 1355.5C1375.9 1361.4 1385 1371.5 1391.5 1365.6Z" fill="#B3BCD0"/>
<path d="M1502.5 1299C1506 1297.5 1508.7 1295.4 1510.9 1292.3C1512.9 1289.5 1510 1285.5 1506.7 1286.2C1503 1287 1500.1 1288.8 1497.4 1291.5C1493.6 1295.1 1497.7 1301 1502.5 1299Z" fill="#B3BCD0"/>
<path d="M1581.7 1336.7C1584.8 1337.2 1587.7 1337.1 1590.1 1334.8C1592 1333 1592.2 1329 1589.5 1327.6C1587.6 1326.6 1586.1 1326.2 1583.9 1326.6C1582.5 1326.8 1581.2 1327.5 1579.9 1328.1C1578.2 1329 1577 1331.2 1577.5 1333.1C1578 1335.3 1579.6 1336.4 1581.7 1336.7Z" fill="#B3BCD0"/>
<path d="M1589.5 1386.9C1589.7 1386.8 1589.9 1386.7 1590.1 1386.6C1590.3 1386.5 1590.6 1386.3 1590.8 1386.2C1591.4 1385.8 1591.5 1385.7 1591.1 1386C1590.2 1386.2 1591.5 1386.1 1591.4 1385.9C1591.2 1386 1591 1386.1 1590.8 1386.1C1591.2 1386 1591.2 1386 1590.8 1386.1C1590.3 1385.9 1590.6 1386.1 1590.9 1386.1C1591.5 1386.1 1592.2 1386.1 1592.8 1386.1C1592.6 1386.1 1591.7 1386.1 1592.4 1386.2C1593.5 1386.2 1594.3 1385.9 1595.3 1385.6C1596.8 1385.1 1597.8 1383.4 1598 1381.9C1598.3 1380.2 1597.8 1378.9 1596.8 1377.5C1594.8 1374.6 1590.4 1374.8 1587.6 1376.2C1585.1 1377.5 1583 1379.9 1583 1382.8C1583.1 1385.8 1586.5 1388.8 1589.5 1386.9Z" fill="#B3BCD0"/>
<path d="M1527.5 1426.9C1528.2 1425.8 1528.8 1424.6 1528.8 1423.2C1528.7 1420.4 1526.9 1418.4 1524.1 1418.1C1522.7 1417.9 1521.5 1418.4 1520.3 1419C1517.1 1420.6 1516.3 1425 1518.7 1427.6C1521.1 1430.3 1525.6 1429.9 1527.5 1426.9Z" fill="#B3BCD0"/>
<path d="M1667.2 1330.9C1669.7 1330.8 1672.2 1330 1674.5 1329C1677.1 1327.9 1679.5 1326.4 1680.4 1323.5C1681.2 1320.7 1679.7 1318.2 1677.1 1317.1C1674.5 1316 1671.9 1317 1669.6 1318.2C1667.8 1319.2 1665.5 1320.5 1664.2 1321.9C1662.8 1323.4 1662.1 1325.3 1662.9 1327.3C1663.3 1329.2 1665.2 1331 1667.2 1330.9Z" fill="#B3BCD0"/>
<path d="M1571.9 1308.2C1572 1308.3 1572.2 1308.3 1572.3 1308.4C1577.6 1310.8 1581.7 1303.1 1578.2 1299.2C1574.1 1294.7 1568 1298.9 1568.4 1304.2C1568.4 1304.3 1568.4 1304.5 1568.4 1304.6C1568.6 1306.1 1570.3 1308 1571.9 1308.2C1572 1308.3 1572.2 1308.4 1572.3 1308.4C1577.5 1309.4 1582.3 1303.7 1578.2 1299.2C1574.7 1295.3 1566.6 1298.6 1568.4 1304.2C1569.1 1306.1 1569.9 1307.3 1571.9 1308.2Z" fill="#B3BCD0"/>
<path d="M1291.2 1478.6C1287 1478.4 1282 1479.5 1279.5 1483.1C1277.5 1486 1279.1 1490.6 1282.6 1491.5C1286.9 1492.6 1291.3 1490.3 1294.4 1487.4C1297.6 1484.5 1295.7 1478.8 1291.2 1478.6Z" fill="#B3BCD0"/>
<path d="M1358.4 1474.2C1355.4 1475.6 1351.9 1477 1349.6 1479.5C1347.8 1481.5 1347.3 1484.5 1349.2 1486.7C1351.2 1488.9 1354.1 1488.7 1356.4 1487.1C1359.1 1485.1 1360.9 1481.8 1362.6 1478.9C1364.3 1476.1 1361.3 1472.8 1358.4 1474.2Z" fill="#B3BCD0"/>
<path d="M1307 1413.1C1305.6 1410.9 1303.3 1409.3 1301 1408C1298.6 1406.6 1295.2 1407.1 1293.8 1409.6C1293.3 1410.5 1293 1411.2 1293 1412.2C1292.8 1415 1295.2 1417.6 1298 1417.7C1300.6 1417.8 1303.4 1417.8 1305.9 1416.8C1307 1416.2 1307.8 1414.3 1307 1413.1Z" fill="#B3BCD0"/>
<path d="M1345.9 1364.2C1345 1363.7 1344.4 1363.1 1343.6 1362.5C1342.6 1361.8 1341.2 1361.2 1340.1 1360.8C1336.6 1359.4 1332.8 1362.5 1332.7 1366C1332.5 1369.5 1336 1372.8 1339.6 1371.9C1340.8 1371.6 1342.2 1371.2 1343.3 1370.6C1344.2 1370.2 1344.9 1369.6 1345.8 1369.2C1347.6 1368.5 1347.7 1365.2 1345.9 1364.2Z" fill="#B3BCD0"/>
<path d="M1418.2 1313C1416 1312.6 1414 1311.8 1412.3 1311.2C1408.8 1309.8 1405.2 1311 1403.1 1314.1C1402 1315.7 1402.1 1318.5 1403.6 1319.9C1405 1321.1 1406.2 1322.1 1408.1 1322.3C1410 1322.5 1411.9 1321.9 1413.4 1320.8C1414.8 1319.8 1416.5 1318.7 1418.5 1317.8C1420.6 1317 1420.5 1313.5 1418.2 1313Z" fill="#B3BCD0"/>
<path d="M1370.1 1319.6C1368.7 1318.9 1367.5 1318.6 1366 1318.4C1363.6 1318.2 1360.9 1320 1360.3 1322.3C1359.6 1324.8 1360.5 1327.2 1362.7 1328.8C1363.5 1329.4 1364.3 1329.8 1365.2 1330.1C1368 1330.9 1371 1329.6 1372.2 1327C1373.3 1324.7 1372.7 1320.9 1370.1 1319.6Z" fill="#B3BCD0"/>
<path d="M1618.4 1344.3C1618.5 1344 1618.6 1343.8 1618.8 1343.5C1620.9 1339.1 1617.2 1335.1 1612.7 1336.7C1612.4 1336.8 1612.2 1336.9 1611.9 1337C1603.5 1339.9 1614.6 1352.3 1618.4 1344.3Z" fill="#B3BCD0"/>
<path d="M1563 1410.6C1565 1412.5 1567.3 1415.3 1570.4 1415.2C1571.8 1415.1 1573 1414.8 1573.9 1413.6C1574.7 1412.6 1575.3 1411.2 1574.9 1409.9C1574.3 1408.1 1573.3 1406.7 1571.6 1405.6C1570.6 1405 1569.5 1404.6 1568.5 1404.1C1566.6 1403.1 1564.4 1403.2 1562.9 1405C1561.7 1406.4 1561.5 1409.1 1563 1410.6Z" fill="#B3BCD0"/>
<path d="M528.5 1984.5C529 1984.2 533.5 1983.7 531.2 1983.6C529.1 1983.6 527.5 1984 525.6 1984.8C523.7 1985.6 521.9 1986.6 520.5 1988.2C518.8 1989.8 520.2 1989 524.9 1985.8C524.6 1985.9 524.3 1985.9 523.9 1986C525.2 1985.8 526.6 1985.6 527.9 1985.5C522.7 1986.1 517.7 1986.9 513.9 1991C508.6 1996.7 506.9 2005 511 2012C515.4 2019.4 525 2021.7 532.5 2017.6C535.5 2015.9 536.9 2013.9 538.9 2011.3C538.1 2012.4 537.2 2013.5 536.4 2014.6C541.1 2010.2 544 2003.3 543.1 1997C543 1996.4 542.3 1990.9 542.9 1996.4C542.7 1995.1 542.6 1993.5 542.3 1992.1C541.8 1989.7 540.7 1987.8 539.1 1986C536.7 1983 531.6 1982.6 528.5 1984.5Z" fill="#020B44"/>
<path d="M557.7 2013.7C557 2016.8 555.3 2018.5 553.3 2020.7C549.7 2024.8 546.3 2029.4 546.4 2035.1C546.5 2041.8 553.6 2048.7 560.7 2046C567.6 2043.4 571.4 2037.6 572.5 2030.4C573.4 2024.9 574 2019 572 2013.7C569.7 2007.4 559.5 2006 557.7 2013.7Z" fill="#020B44"/>
<path d="M520.1 2059.9C517.8 2062.3 515.2 2064.2 512.8 2066.4C506.3 2072.4 506.3 2083.9 515.2 2087.7C523.3 2091.1 531 2085 532.6 2077.1C533.4 2073.4 534.1 2069.7 534.4 2065.9C534.9 2058.5 524.9 2054.9 520.1 2059.9Z" fill="#020B44"/>
<path d="M515.7 2095.7C515.2 2097.3 516.7 2094.4 515.6 2095.9C515.5 2096.1 514.5 2097.7 515.2 2096.6C515.9 2095.5 514.8 2097.1 514.6 2097.3C514.1 2097.8 513.6 2098.3 513.1 2098.8C510.2 2101.4 506.5 2105.6 507 2109.9C507.5 2114.1 509.6 2118.1 514.1 2119.2C526.9 2122.3 533 2105.7 530.7 2095.7C528.9 2088 517.8 2088.6 515.7 2095.7Z" fill="#020B44"/>
<path d="M547.7 2126.3C547.4 2127.6 548.5 2125.3 547.9 2126C547.7 2126.2 547.4 2126.7 547.3 2127C546.9 2127.9 548.5 2125.7 547.4 2126.9C547 2127.3 546.7 2127.7 546.3 2128.1C544.4 2130.1 542.3 2131.8 540.8 2134.3C537.1 2140.5 540 2148.7 546.6 2151.4C549.7 2152.7 552.8 2152.7 555.9 2151.4C559.6 2149.8 561.4 2147.2 562.9 2143.6C564 2141 564 2137.1 564 2134.1C564 2130.7 563.5 2127.4 561.9 2124.4C558.8 2118.6 549.3 2120 547.7 2126.3Z" fill="#020B44"/>
<path d="M591.9 2102.2C591.6 2103.7 591 2102.7 592.3 2101.5C592 2101.8 591.8 2102.4 591.7 2102.7C591.4 2103.2 591.2 2103.6 590.9 2104.1C590.6 2104.5 589 2106.6 590.5 2104.8C592 2103 590.3 2105 590 2105.3C589.6 2105.7 589.2 2106 588.9 2106.4C590.7 2104.1 591.6 2104.5 590.2 2105.3C588.8 2106.1 587.4 2107 586.4 2108.2C582.5 2112.9 580.6 2119.8 584.2 2125.4C587.7 2130.8 593.9 2133.6 600.2 2131.9C609 2129.6 612.3 2120.9 612.1 2112.7C612 2108.4 611.4 2103.7 609.3 2099.9C605.5 2093.2 593.5 2094.1 591.9 2102.2Z" fill="#020B44"/>
<path d="M554 2084C553.4 2086 554.9 2082.7 554.3 2083.6C554 2084 553.8 2084.5 553.5 2084.9C552.9 2085.8 552.3 2086.6 551.7 2087.4C548.4 2092.1 548 2097.9 550.8 2102.9C554.2 2109 564.2 2111 569 2105.3C571.5 2102.4 572.7 2099.6 573.1 2095.8C573.2 2095.2 573.2 2094.6 573.2 2094C573.3 2092 572.9 2096.4 573.1 2094.9C573.6 2091.1 574 2087.9 573.1 2084.1C572.1 2080 567.8 2076.6 563.6 2076.8C559.2 2076.9 555.2 2079.7 554 2084Z" fill="#020B44"/>
<path d="M598.4 2040.6C598.1 2041.6 597.9 2042.7 597.5 2043.6C597.3 2043.9 597.2 2044.1 597 2044.4C597.3 2043.9 597.3 2044 596.8 2044.5C596.4 2045 596 2045.5 595.5 2046C595.2 2046.4 594.8 2046.7 594.5 2047C596 2045.9 596.3 2045.7 595.3 2046.3C586.8 2050.6 587.6 2063.3 595.3 2067.8C603.8 2072.8 613.5 2066.3 614 2057.1C614.4 2051.3 611.1 2046.1 609.4 2040.7C607.6 2035.3 600 2035.1 598.4 2040.6Z" fill="#020B44"/>
<path d="M618 1964.5C616 1965.4 614.4 1966.7 612.7 1968C612.2 1968.4 611.2 1969.6 610.6 1969.7C610.9 1969.4 611.3 1969.2 611.6 1968.9C611.3 1969.1 610.9 1969.4 610.6 1969.6C608.2 1971.3 605.9 1972.9 604.4 1975.4C602 1979.1 601.9 1984.9 604.3 1988.5C606.7 1992.1 612 1995.3 616.5 1993.5C618.5 1992.7 620.2 1992.1 621.8 1990.5C623.7 1988 624.1 1987.4 623.1 1988.9C622 1990.3 622.5 1989.8 624.4 1987.2C625.3 1985.4 625.9 1983.4 626.5 1981.6C626.9 1980.4 627.2 1979.2 627.5 1978C627.7 1977.3 627.9 1976.5 628.1 1975.8C628.6 1974.2 627.6 1976.7 628.5 1975.1C630.2 1972.1 629.7 1968.1 627.3 1965.7C624.8 1963.1 621.2 1963.1 618 1964.5Z" fill="#020B44"/>
<path d="M664.8 1948.8C667.1 1946.8 663.6 1949.6 663.2 1949.9C665.4 1948.3 663.4 1949.7 662.8 1949.9C661.5 1950.6 660.3 1951.2 659 1951.9C652.4 1955.7 648 1961.4 647.7 1969.2C647.4 1977.1 654 1983.7 661.4 1984.7C668.3 1985.6 677.7 1981.2 678.8 1973.4C679 1971.8 679.2 1970.2 679.5 1968.6C679.4 1968.3 679.4 1967.9 679.5 1967.6C679.5 1966.4 679.4 1967.1 679.2 1969.8C679.3 1968.9 679.5 1968 679.6 1967.1C679.8 1965.9 680 1964.6 680.1 1963.3C680.3 1961.4 679.5 1966.7 680 1963.9C681.2 1957.4 681 1951.3 674.8 1947.4C671.5 1945.5 667.5 1946.4 664.8 1948.8Z" fill="#020B44"/>
<path d="M657.6 2022.5C657.4 2023.1 657.1 2023.6 656.8 2024.1C656.6 2024.4 656.4 2024.7 656.2 2025C655.8 2025.6 655.9 2025.4 656.7 2024.4C656.5 2025.3 654.4 2026.8 653.8 2027.5C652.3 2029.2 650.7 2030.7 649.5 2032.6C647.8 2035.2 647.4 2037.8 647.3 2040.8C647.1 2045.1 650.8 2050.7 655.3 2051.3C660.3 2052 664.6 2051.7 668.4 2048.1C671.1 2045.7 672.5 2042.4 673.6 2039C675 2034.7 674.9 2028.9 673.5 2024.5C672.4 2021.2 669.8 2018.8 666.3 2018.3C663.1 2017.9 658.9 2019.4 657.6 2022.5Z" fill="#020B44"/>
<path d="M674 2077.9C672.3 2082.1 668.5 2085.5 665.7 2089.1C660.3 2096.1 658.8 2104.7 665.1 2111.7C669.6 2116.8 676.9 2115.4 681.6 2111.7C686.6 2107.8 686.8 2100.6 688 2094.9C689.2 2089 688.9 2083.5 686.8 2077.9C684.3 2071.5 676.5 2071.8 674 2077.9Z" fill="#020B44"/>
<path d="M636.9 2132.4C636 2134.6 637.4 2132.3 636.5 2133.4C636.1 2133.9 634.7 2134.9 635.9 2134C634 2135.4 632 2136.7 630.3 2138.4C626.5 2142.2 623.2 2148.5 623.8 2154C624.7 2161.7 630.3 2166.5 638.2 2165C645.7 2163.6 649.5 2156.3 651.6 2149.7C653.2 2144.9 654.2 2139.4 652.4 2134.4C651.3 2131.2 648.9 2128.8 645.4 2128.3C642.3 2128 638.2 2129.3 636.9 2132.4Z" fill="#020B44"/>
<path d="M685 2153.8C684.2 2154.6 683.7 2155.6 683 2156.4C683.7 2155.5 681.8 2157.4 681.9 2157.3C680.4 2158.6 679.8 2158.8 677.9 2160.4C674.2 2163.5 671.1 2166.9 669.6 2171.6C667.5 2178 672.6 2184.6 678.8 2185.5C684.8 2186.3 692.1 2181.4 691.4 2174.6C691.2 2172.6 690.5 2175.7 691.4 2173.8C690.2 2176.3 693.2 2169.6 692.4 2171.3C691.8 2172.6 692.3 2171.6 692.7 2170.9C693.2 2170.1 693.7 2169.4 694.2 2168.6C696.9 2164.5 698.8 2159.9 696.3 2155.2C694.2 2151.2 688.1 2150.6 685 2153.8Z" fill="#020B44"/>
<path d="M721.4 2155.5C721.3 2155.9 721 2156.8 721.4 2155.9C721.4 2156 720.1 2157.9 720.7 2157C721.4 2156.2 720.2 2157.5 720.1 2157.6C719.6 2158.1 719.1 2158.6 718.6 2159.1C716.2 2161.4 714 2163.9 712.1 2166.7C709.7 2170.4 709.6 2176.4 712.1 2180.1C712.2 2180.3 712.4 2180.5 712.5 2180.7C716.1 2185.9 724 2189.5 729.8 2185.2C734.9 2181.6 736.4 2178.2 736.8 2172.1C736.8 2171.7 736.8 2171.3 736.8 2170.9C736.9 2169.6 736.9 2169.8 736.7 2171.6C736.5 2171 737.1 2169.6 737.1 2169C738 2163.4 737.9 2158.9 735.7 2153.6C733.1 2147.2 723 2149.4 721.4 2155.5Z" fill="#020B44"/>
<path d="M759.9 2131.4C758.5 2132.9 757.1 2134.4 755.5 2135.7C754.7 2136.4 752.9 2137.3 756 2135.4C755.6 2135.7 755.2 2136 754.7 2136.3C753.5 2137 752.3 2137.8 751.3 2138.7C750.5 2139.6 749.7 2140.6 749 2141.6C750.5 2139.7 750.9 2139.2 750.1 2140.1C746.7 2144.1 745.2 2150 748.2 2154.8C751.2 2159.5 756.4 2161.6 761.9 2160.4C771.2 2158.2 773.7 2148.7 775.7 2140.7C776.7 2136.8 775.1 2132 771.3 2130C767.6 2128 762.9 2128.3 759.9 2131.4Z" fill="#020B44"/>
<path d="M716.8 2114.8C716.5 2115.1 716.2 2115.3 715.9 2115.6C716.6 2115.1 717.2 2114.6 717.9 2114.1C717.1 2114.7 716.3 2115 715.5 2115.5C713.5 2116.5 710.9 2119.1 709.8 2121C706.5 2126.3 707.5 2133.6 713.1 2137C718.5 2140.3 725.1 2138.1 728.9 2133.5C730.6 2131.4 731.9 2129.2 732.3 2126.6C732.6 2125 732.9 2123.3 732.8 2121.6C732.5 2117.8 730.7 2114.6 727 2113C723.6 2111.4 719.5 2112.1 716.8 2114.8Z" fill="#020B44"/>
<path d="M710.1 1920.3C704.7 1925.4 698 1929.8 695.8 1937.3C692.7 1947.7 705.2 1957.9 714.6 1951.8C719.8 1948.4 721.4 1944.3 722.6 1938.6C723.3 1935.4 724.4 1932.4 725.2 1929.2C727.4 1920.3 716.7 1914 710.1 1920.3Z" fill="#020B44"/>
<g opacity="0.7">
<g opacity="0.7">
<path opacity="0.7" d="M1312.7 1522.2C1313.4 1524.7 1309.5 1528.8 1302.9 1535.1C1300.1 1537.8 1297.5 1540.3 1296.5 1541.8C1288.1 1553.9 1280.3 1569.9 1276.1 1583.6C1273.9 1590.7 1271.1 1597.7 1268.5 1604.5C1264.8 1614 1260.9 1623.8 1258.6 1633.8C1256.4 1643.3 1255.8 1653.1 1256.8 1662.9C1257.1 1665.5 1257.2 1668.3 1257.4 1671.1C1257.8 1677.6 1258.3 1684.4 1259.7 1690.2C1265.4 1712.6 1284.8 1742 1303.1 1755.8L1307.6 1759.2C1324.5 1772 1341.9 1785.2 1361.4 1793.1C1375.7 1798.9 1394.9 1805.4 1416 1804.3L1419 1804.2C1431.5 1803.6 1444.4 1803 1456.8 1803.4C1458.9 1803.5 1461.1 1803.6 1463.2 1803.7C1470.4 1804.1 1477.8 1804.6 1485 1803.3C1523.1 1796.4 1555.2 1759.3 1564.1 1748L1565.9 1749.4C1556.9 1760.8 1524.3 1798.4 1485.4 1805.5C1478 1806.8 1470.4 1806.4 1463.1 1806C1461 1805.9 1458.8 1805.7 1456.7 1805.7C1444.3 1805.2 1431.5 1805.8 1419.1 1806.5L1416.1 1806.6C1394.5 1807.6 1375 1801.1 1360.5 1795.2C1340.8 1787.2 1323.2 1773.9 1306.2 1761L1301.7 1757.6C1283.1 1743.6 1263.3 1713.6 1257.5 1690.7C1256 1684.7 1255.5 1677.8 1255.1 1671.2C1254.9 1668.4 1254.7 1665.6 1254.5 1663C1253.5 1653 1254.1 1642.9 1256.4 1633.2C1258.7 1623.1 1262.6 1613.2 1266.4 1603.6C1269.1 1596.8 1271.8 1589.9 1274 1582.9C1278.3 1569.1 1286.2 1552.8 1294.7 1540.5C1295.9 1538.8 1298.6 1536.2 1301.4 1533.5C1304.7 1530.3 1310.9 1524.4 1310.6 1522.9L1312.7 1522.2Z" fill="#525F7B"/>
</g>
<g opacity="0.7">
<path opacity="0.7" d="M1412.7 1629.7L1414.4 1631.2C1409.8 1636.2 1407.3 1642.3 1407.8 1647.4C1408.1 1651.2 1410 1654.4 1413.3 1657C1418 1660.6 1426.7 1663.2 1432.3 1661.2C1435.1 1660.2 1436.9 1658.1 1437.6 1654.9L1439.8 1655.4C1438.9 1659.3 1436.6 1662 1433 1663.3C1426.6 1665.6 1417 1662.8 1411.9 1658.8C1408 1655.8 1405.9 1652.1 1405.5 1647.6C1405 1641.9 1407.6 1635.3 1412.7 1629.7Z" fill="#525F7B"/>
</g>
<g opacity="0.7">
<path opacity="0.7" d="M1399.1 1619.8L1400.5 1621.5C1394.9 1626.1 1394.5 1635 1394.2 1642.1C1394.2 1643.1 1394.1 1644 1394.1 1645C1393.4 1656.1 1398.4 1660.8 1409.2 1666.8C1415.4 1670.2 1434.8 1676 1444.2 1671.5C1447.1 1670.1 1448.7 1668 1449.2 1665L1451.4 1665.4C1450.8 1669.1 1448.6 1671.9 1445.1 1673.6C1435.1 1678.4 1415.4 1673 1408 1668.9C1396.6 1662.6 1391 1657.1 1391.8 1645C1391.9 1644.1 1391.9 1643.1 1391.9 1642.2C1392.3 1634.5 1392.7 1625.1 1399.1 1619.8Z" fill="#525F7B"/>
</g>
<g opacity="0.7">
<path opacity="0.7" d="M1392.5 1606.3L1394.1 1607.9C1387.1 1615 1381.4 1625.7 1379.2 1635.7C1375.9 1650.6 1376.7 1659.7 1390.1 1670.4C1403.4 1681.2 1437.2 1702.8 1464.1 1672L1465.8 1673.5C1446 1696.3 1417.9 1695.8 1388.7 1672.2C1374.6 1660.7 1373.6 1650.7 1377 1635.2C1379.3 1624.8 1385.2 1613.7 1392.5 1606.3Z" fill="#525F7B"/>
</g>
<g opacity="0.7">
<path opacity="0.7" d="M1382.8 1590.6C1374.1 1606.9 1369.2 1625.5 1369.8 1640.2C1370.5 1659.7 1377.8 1671.6 1395 1681.2C1397.2 1682.5 1399.6 1683.9 1402.1 1685.3C1413.5 1692.1 1427.8 1700.5 1440 1700.8C1455.4 1701.2 1471 1693.8 1481.7 1681.1L1483.4 1682.6C1472.2 1695.9 1456 1703.6 1439.9 1703.1C1427.1 1702.8 1412.6 1694.2 1400.9 1687.3C1398.4 1685.8 1396.1 1684.4 1393.9 1683.2C1376 1673.1 1368.4 1660.7 1367.6 1640.3C1367 1625.2 1372 1606.3 1380.9 1589.6L1382.8 1590.6Z" fill="#525F7B"/>
</g>
<g opacity="0.7">
<path opacity="0.7" d="M1373.6 1582.3C1373 1585.1 1371.3 1588 1369.7 1590.9C1368.2 1593.5 1366.7 1596.2 1366 1598.7C1364.9 1602.6 1364.2 1607 1363.6 1611.2C1363.2 1613.7 1362.8 1616.3 1362.3 1618.8C1359.5 1633 1357.4 1653.8 1363.1 1672.3C1366.8 1684.1 1379.2 1695 1396.3 1701.4C1398.1 1702.1 1399.9 1702.8 1401.8 1703.5C1417.4 1709.5 1433.5 1715.8 1449.6 1710.7L1451.6 1710.1C1466.7 1705.4 1483.9 1700.1 1494 1687.7L1495.8 1689.1C1485.3 1702 1467.8 1707.4 1452.3 1712.2L1450.3 1712.8C1433.5 1718 1417 1711.7 1401 1705.5C1399.2 1704.8 1397.4 1704.1 1395.6 1703.4C1377.8 1696.7 1364.9 1685.3 1361 1672.8C1355.1 1653.9 1357.3 1632.7 1360.1 1618.2C1360.6 1615.8 1361 1613.2 1361.3 1610.7C1362 1606.4 1362.6 1601.9 1363.8 1597.9C1364.6 1595.1 1366.2 1592.3 1367.7 1589.6C1369.3 1586.8 1370.8 1584.1 1371.3 1581.6L1373.6 1582.3Z" fill="#525F7B"/>
</g>
<g opacity="0.7">
<path opacity="0.7" d="M1367.1 1567.1C1367.3 1568 1366.5 1569.6 1362.5 1577.3C1361.1 1579.9 1359.9 1582.4 1359.3 1583.7C1357.7 1587.2 1356 1590.5 1354.3 1593.7C1350.6 1600.7 1347.2 1607.2 1345.9 1615.5C1341 1647.9 1342.5 1669.9 1350.5 1682.6C1358.4 1695.1 1377.7 1708 1392.7 1714.1C1415.1 1723.3 1437.2 1731.2 1460.9 1726C1469.1 1724.2 1476.3 1719.7 1483 1715.2C1489.4 1710.9 1501.1 1702.5 1507 1694.9L1508.8 1696.3C1502.7 1704.1 1490.8 1712.7 1484.3 1717.1C1477.4 1721.7 1470 1726.4 1461.4 1728.3C1437.1 1733.7 1413.7 1725.3 1391.9 1716.3C1376.6 1710 1356.8 1696.8 1348.7 1683.9C1340.4 1670.7 1338.8 1648.3 1343.8 1615.3C1345.1 1606.7 1348.7 1599.9 1352.4 1592.8C1354.1 1589.6 1355.8 1586.4 1357.3 1582.9C1357.9 1581.5 1359.2 1579 1360.6 1576.4C1362.3 1573.2 1364.8 1568.3 1364.9 1567.4L1367.1 1567.1Z" fill="#525F7B"/>
</g>
<g opacity="0.7">
<path opacity="0.7" d="M1357.9 1562C1354.6 1569.2 1350.6 1576.4 1346.3 1584.1C1341.3 1593.1 1336.2 1602.4 1332.3 1611.5C1318.6 1643.6 1318.6 1671.4 1332.2 1694.3C1343.3 1712.8 1372.9 1722 1394.6 1728.7C1396.5 1729.3 1398.3 1729.8 1400 1730.4C1401.8 1731 1403.6 1731.6 1405.6 1732.2C1423.8 1738.1 1448.8 1746.2 1465.5 1738.9C1482.1 1731.7 1506.7 1717.3 1521.3 1702.9L1522.9 1704.5C1508.1 1719.1 1483.2 1733.6 1466.4 1740.9C1448.9 1748.5 1423.5 1740.3 1404.9 1734.3C1403 1733.7 1401.1 1733.1 1399.4 1732.5C1397.7 1732 1395.9 1731.4 1394 1730.8C1372 1724 1341.8 1714.6 1330.3 1695.4C1316.2 1671.9 1316.2 1643.4 1330.2 1610.6C1334.1 1601.4 1339.3 1592 1344.3 1583C1348.5 1575.3 1352.6 1568.1 1355.8 1561L1357.9 1562Z" fill="#525F7B"/>
</g>
<g opacity="0.7">
<path opacity="0.7" d="M1353.8 1551.6L1352.7 1553.4C1340.8 1572.1 1329.6 1589.8 1321.5 1611.3L1320.2 1614.7C1316.1 1625.6 1312.2 1635.8 1312.1 1647.8C1312 1660.1 1314 1670.6 1316.4 1682.1L1316.5 1682.6C1318.8 1693.6 1320.5 1701.6 1329 1709.7C1338.7 1719 1350.9 1725.1 1362.7 1731L1366.6 1732.9C1391.8 1745.7 1426.4 1763.3 1459.7 1758.5C1461.5 1758.2 1463.5 1758 1465.4 1757.8C1471.6 1757.1 1478.1 1756.4 1483.2 1754.1C1486.5 1752.6 1489.5 1750 1492.3 1747.5C1494.3 1745.7 1496.4 1743.9 1498.6 1742.4C1501.4 1740.6 1504.5 1738.7 1507.7 1736.7C1518 1730.4 1529.6 1723.3 1536.1 1714.9L1537.9 1716.3C1531.2 1724.9 1519.3 1732.2 1508.9 1738.6C1505.7 1740.6 1502.6 1742.5 1499.9 1744.3C1497.8 1745.7 1495.9 1747.4 1493.8 1749.2C1490.8 1751.8 1487.7 1754.6 1484.1 1756.2C1478.6 1758.7 1472 1759.4 1465.6 1760.1C1463.6 1760.3 1461.7 1760.5 1459.9 1760.8C1425.9 1765.6 1390.9 1747.9 1365.4 1734.9L1361.6 1733C1349.7 1727 1337.4 1720.8 1327.4 1711.3C1318.4 1702.8 1316.7 1694.5 1314.3 1683.1L1314.2 1682.6C1311.7 1671 1309.7 1660.3 1309.8 1647.8C1309.9 1635.5 1313.9 1625 1318.1 1614L1319.4 1610.6C1327.5 1588.9 1338.8 1571.1 1350.8 1552.3L1351.9 1550.5L1353.8 1551.6Z" fill="#525F7B"/>
</g>
<g opacity="0.7">
<path opacity="0.7" d="M1340.4 1537.8C1335.2 1550.1 1329.1 1562.5 1323.1 1574.5C1315.1 1590.7 1306.9 1607.4 1300.5 1624.3C1291.7 1647.9 1295.7 1682.3 1309.9 1704.3C1329 1734 1350.1 1751.5 1380.6 1762.8C1407.1 1772.6 1440 1777.4 1473.3 1776.2C1505.2 1775 1527.9 1752.7 1550.2 1727.9L1551.9 1729.4C1529.2 1754.5 1506.2 1777.2 1473.4 1778.4C1439.8 1779.6 1406.6 1774.8 1379.8 1764.9C1348.9 1753.4 1327.4 1735.7 1308 1705.5C1293.5 1682.9 1289.3 1647.6 1298.4 1623.4C1304.8 1606.4 1313.1 1589.6 1321 1573.4C1326.9 1561.4 1333 1549 1338.2 1536.8L1340.4 1537.8Z" fill="#525F7B"/>
</g>
<g opacity="0.7">
<path opacity="0.7" d="M1333.1 1526.2C1332 1531.1 1328.3 1535.6 1324.8 1540C1323.3 1541.8 1321.9 1543.6 1320.7 1545.3C1315.5 1552.7 1311.4 1561.2 1307.5 1569.3C1306.7 1571 1305.8 1572.7 1305 1574.4C1303.9 1576.7 1302.7 1579 1301.6 1581.3C1294.1 1596.1 1286.3 1611.4 1284.4 1627.8C1283.7 1633.5 1282 1638.4 1280.3 1643.3C1279.4 1645.8 1278.5 1648.5 1277.7 1651.2C1275.4 1659.5 1275.7 1671.5 1276 1677.9C1277.5 1704.5 1297.3 1728.2 1305.8 1737.2C1312 1743.8 1319.6 1748.7 1326.9 1753.5C1328.6 1754.6 1330.3 1755.8 1332 1756.9C1335.6 1759.3 1339.1 1762.1 1342.4 1764.7C1347.7 1768.9 1353.3 1773.3 1359.4 1776.4C1377.3 1785.4 1396.4 1786.9 1411 1787.1C1419 1787.2 1427 1786.4 1434.7 1785.5C1445.1 1784.4 1455.8 1783.2 1466.6 1784.4C1477.7 1785.6 1486.7 1785.9 1497.5 1783.3C1506.1 1781.3 1512.3 1776.1 1519 1770.5C1521.6 1768.3 1524.3 1766 1527.2 1764C1531.6 1760.8 1536 1756.5 1540.3 1752.2C1546.7 1745.8 1553.4 1739.2 1560.6 1736.2L1561.5 1738.3C1554.7 1741.2 1548.2 1747.6 1542 1753.8C1537.7 1758.1 1533.2 1762.6 1528.6 1765.8C1525.8 1767.8 1523.1 1770 1520.5 1772.2C1514 1777.7 1507.2 1783.3 1498.1 1785.4C1487 1788 1477.5 1787.7 1466.5 1786.5C1456 1785.3 1445.3 1786.5 1435.1 1787.6C1427.3 1788.4 1419.2 1789.3 1411.1 1789.2C1396.2 1789 1376.8 1787.5 1358.5 1778.3C1352.2 1775.1 1346.6 1770.7 1341.1 1766.4C1337.8 1763.8 1334.4 1761.1 1330.8 1758.7C1329.1 1757.6 1327.4 1756.4 1325.7 1755.3C1318.3 1750.4 1310.6 1745.4 1304.2 1738.6C1295.6 1729.4 1275.4 1705.2 1273.8 1677.9C1273.4 1671.4 1273.2 1659.1 1275.6 1650.5C1276.4 1647.7 1277.3 1645.1 1278.2 1642.5C1279.9 1637.6 1281.6 1632.9 1282.2 1627.5C1284.2 1610.7 1292 1595.2 1299.6 1580.2C1300.8 1577.9 1301.9 1575.6 1303 1573.4C1303.8 1571.7 1304.7 1570 1305.5 1568.3C1309.5 1560.1 1313.7 1551.6 1318.9 1544C1320.2 1542.2 1321.7 1540.3 1323.1 1538.5C1326.5 1534.4 1330 1530.1 1331 1525.7L1333.1 1526.2Z" fill="#525F7B"/>
</g>
</g>
<path d="M1198.4 1780.1C1211.8 1770.9 1216.4 1751.7 1207.8 1737.7C1206.3 1735.2 1203 1734.3 1200.4 1735.8C1197.9 1737.3 1197 1740.7 1198.5 1743.2C1198.9 1743.9 1199.3 1744.5 1199.6 1745.2C1199.7 1745.3 1200.2 1746.5 1199.9 1745.8C1199.6 1745.1 1200.1 1746.5 1200.1 1746.4C1200.6 1747.9 1200.9 1749.4 1201.2 1750.9C1201.1 1750.4 1201.1 1750.3 1201.2 1750.8C1201.2 1751.2 1201.3 1751.6 1201.3 1752C1201.3 1752.8 1201.4 1753.5 1201.3 1754.3C1201.3 1755.1 1201.2 1755.8 1201.1 1756.6C1201.1 1757.4 1201.3 1755.4 1201.1 1756.8C1201 1757.2 1201 1757.6 1200.9 1757.9C1200.6 1759.3 1200.1 1760.7 1199.6 1762.1C1199.1 1763.5 1199.9 1761.5 1199.5 1762.3C1199.3 1762.6 1199.2 1763 1199 1763.3C1198.7 1764 1198.3 1764.7 1197.9 1765.3C1197.5 1766 1197.1 1766.6 1196.6 1767.2C1197.3 1766.3 1195.9 1768 1195.7 1768.2C1195.2 1768.7 1194.7 1769.2 1194.2 1769.6C1193.9 1769.9 1193.6 1770.1 1193.3 1770.3C1194 1769.7 1193.2 1770.4 1192.9 1770.6C1190.5 1772.2 1189.4 1775.3 1191 1778C1192.4 1780.5 1196 1781.7 1198.4 1780.1Z" fill="#B3BCD0"/>
<path d="M1168.1 1743.2C1167.8 1742.6 1167.6 1742 1167.3 1741.5C1166.7 1740.1 1167.7 1742.5 1167.1 1741C1166.7 1740 1166.3 1738.9 1165.9 1737.9C1165.1 1735.8 1164.5 1733.7 1164 1731.5C1163.9 1731 1163.8 1730.6 1163.7 1730.1C1163.6 1729.8 1163.6 1729.5 1163.6 1729.2C1163.7 1729.9 1163.7 1729.9 1163.6 1729.3C1163.5 1728.2 1163.5 1727.2 1163.5 1726.1C1163.5 1725.8 1163.5 1725 1163.6 1724.7C1163.5 1725.4 1163.5 1725.4 1163.6 1724.8C1163.7 1724.5 1163.7 1724.2 1163.8 1723.9C1164 1722.8 1164.4 1721.8 1164.8 1720.8C1165.9 1718.2 1163.6 1714.8 1161 1714.2C1157.9 1713.5 1155.5 1715.2 1154.4 1718C1150.2 1728.2 1154.7 1739.3 1158.8 1748.7C1159.9 1751.3 1163.9 1752.1 1166.2 1750.6C1168.8 1748.8 1169.3 1745.9 1168.1 1743.2Z" fill="#B3BCD0"/>
<path d="M1148.3 1789.2C1149.7 1782.7 1151.2 1775.5 1148.8 1769.1C1146.8 1763.5 1142.4 1758.2 1136.2 1757.1C1133.4 1756.6 1130.3 1757.9 1129.6 1760.9C1129 1763.5 1130.4 1767 1133.4 1767.5C1133.9 1767.6 1134.3 1767.7 1134.8 1767.8C1135.5 1768 1134.7 1767.8 1134.5 1767.6C1134.7 1767.8 1135.1 1767.9 1135.3 1768C1135.5 1768.1 1135.7 1768.2 1135.9 1768.4C1136 1768.5 1136.7 1769 1136.1 1768.5C1135.5 1768 1136.1 1768.5 1136.2 1768.6C1136.4 1768.8 1136.5 1768.9 1136.7 1769.1C1136.9 1769.3 1137 1769.4 1137.2 1769.6C1137.8 1770.3 1137.2 1769.9 1137.1 1769.5C1137.1 1769.8 1137.7 1770.4 1137.9 1770.7C1138.1 1771 1138.3 1771.8 1138.6 1772C1138.4 1771.8 1138.2 1771 1138.5 1771.7C1138.6 1772 1138.7 1772.3 1138.8 1772.6C1138.9 1773.1 1139.1 1773.5 1139.2 1774C1139.2 1774.1 1139.4 1775 1139.3 1774.4C1139.2 1773.8 1139.3 1774.8 1139.3 1774.9C1139.4 1776.3 1139.4 1777.6 1139.3 1779C1139.3 1779.3 1139.2 1779.6 1139.2 1780C1139.2 1780.5 1139.1 1780.6 1139.2 1780C1139.1 1780.6 1139 1781.3 1138.9 1781.9C1138.6 1783.3 1138.3 1784.8 1138 1786.2C1137.4 1788.9 1138.8 1792.1 1141.8 1792.8C1144.4 1793.6 1147.7 1792.2 1148.3 1789.2Z" fill="#B3BCD0"/>
<path d="M1124.3 1818.6C1124 1818.5 1123.7 1818.4 1123.4 1818.2C1123.8 1818.4 1124.3 1818.6 1124.7 1818.7C1122.9 1817.9 1121.2 1817 1119.7 1815.8C1120.1 1816.1 1120.4 1816.4 1120.8 1816.6C1119.2 1815.4 1117.8 1813.9 1116.5 1812.3C1116.8 1812.7 1117.1 1813 1117.3 1813.4C1116.1 1811.8 1115 1810 1114.2 1808.2C1114.4 1808.6 1114.6 1809.1 1114.7 1809.5C1114.1 1808 1113.6 1806.5 1113.3 1804.9C1113.1 1803.6 1111.9 1802.3 1110.8 1801.7C1109.6 1801 1107.9 1800.7 1106.7 1801.2C1103.7 1802.2 1102.4 1804.8 1102.9 1807.8C1103.8 1812.6 1106.2 1817.1 1109.4 1820.8C1112.6 1824.6 1116.8 1827.3 1121.4 1829C1122.6 1829.5 1124.4 1829.1 1125.5 1828.5C1126.6 1827.8 1127.7 1826.6 1128 1825.3C1128.8 1822.1 1127.1 1819.6 1124.3 1818.6Z" fill="#B3BCD0"/>
<path d="M1183.4 1820.9C1175.1 1816.5 1164.8 1815.6 1156 1819C1154.7 1819.5 1153.5 1820.2 1152.8 1821.5C1152.1 1822.7 1151.8 1824.4 1152.3 1825.6C1153.1 1828.1 1156.1 1830.5 1158.9 1829.4C1160.7 1828.7 1162.6 1828.2 1164.5 1827.9C1165.1 1827.8 1165 1827.8 1164.2 1827.9C1164.5 1827.9 1164.7 1827.8 1165 1827.8C1165.4 1827.8 1165.8 1827.7 1166.2 1827.7C1167.2 1827.7 1168.1 1827.7 1169.1 1827.7C1169.6 1827.7 1170 1827.8 1170.5 1827.8C1170.8 1827.8 1171 1827.9 1171.3 1827.9C1170.5 1827.8 1170.4 1827.8 1171 1827.9C1171.9 1828.1 1172.8 1828.2 1173.7 1828.5C1174.6 1828.7 1175.4 1829 1176.3 1829.3C1176.9 1829.5 1176.8 1829.5 1176.1 1829.2C1176.3 1829.3 1176.6 1829.4 1176.8 1829.5C1177.3 1829.7 1177.7 1830 1178.2 1830.2C1180.7 1831.5 1184.2 1830.9 1185.6 1828.3C1186.7 1825.7 1186.1 1822.3 1183.4 1820.9Z" fill="#B3BCD0"/>
<path d="M1147.5 1854.1C1146.6 1854.7 1145.6 1855.3 1144.6 1855.8C1144.1 1856.1 1143.6 1856.3 1143.1 1856.5C1142 1857 1143.9 1856.2 1142.8 1856.6C1140.8 1857.4 1138.7 1858 1136.5 1858.4C1136.2 1858.5 1134.7 1858.9 1136.1 1858.5C1135.6 1858.6 1135 1858.6 1134.4 1858.7C1133.4 1858.8 1132.3 1858.8 1131.2 1858.7C1130.7 1858.7 1130.2 1858.7 1129.7 1858.6C1129.4 1858.6 1127.6 1858.5 1129 1858.6C1127.9 1858.6 1126.7 1858.2 1125.7 1857.9C1123 1857.2 1119.7 1858.8 1119.1 1861.7C1118.5 1864.5 1119.9 1867.6 1122.9 1868.3C1133 1870.9 1144.1 1869.2 1152.8 1863.4C1155.1 1861.8 1156.4 1858.6 1154.7 1856C1153.4 1853.7 1150 1852.4 1147.5 1854.1Z" fill="#B3BCD0"/>
<path d="M1192.7 1862.3C1198.9 1861.6 1205 1860.5 1211 1858.9C1213.7 1858.2 1215.7 1855 1214.8 1852.3C1213.9 1849.5 1211.1 1847.7 1208.2 1848.5C1203.5 1849.8 1198.7 1850.8 1193.9 1851.4C1194.4 1851.3 1194.9 1851.3 1195.3 1851.2C1194.4 1851.3 1193.6 1851.4 1192.7 1851.5C1191.2 1851.7 1190 1852 1188.9 1853.1C1188 1854 1187.3 1855.6 1187.3 1856.9C1187.4 1858.3 1187.8 1859.7 1188.9 1860.7C1189.9 1861.7 1191.3 1862.5 1192.7 1862.3Z" fill="#B3BCD0"/>
<path d="M1186 1704.3C1185.3 1696.9 1183.4 1689.9 1180.5 1683.1C1180 1681.9 1178.4 1680.9 1177.3 1680.6C1176 1680.2 1174.3 1680.4 1173.2 1681.1C1172.1 1681.8 1171 1682.9 1170.7 1684.3C1170.4 1685.8 1170.6 1687 1171.2 1688.4C1171.7 1689.4 1170.8 1687.4 1171.2 1688.4C1171.3 1688.7 1171.5 1689 1171.6 1689.4C1171.8 1690 1172.1 1690.7 1172.3 1691.3C1172.8 1692.6 1173.2 1693.9 1173.5 1695.2C1174.2 1697.8 1174.8 1700.5 1175.2 1703.2C1175.1 1702.7 1175.1 1702.2 1175 1701.8C1175.1 1702.6 1175.2 1703.4 1175.3 1704.2C1175.4 1705.7 1175.8 1706.9 1176.9 1708C1177.8 1708.9 1179.4 1709.6 1180.7 1709.6C1183.3 1709.5 1186.3 1707.2 1186 1704.3Z" fill="#B3BCD0"/>
<path d="M1130 1699.8C1129.8 1699.4 1129.5 1699 1129.3 1698.5C1129.1 1698.2 1128.7 1697.5 1128.7 1697.2C1129 1697.9 1129 1698 1128.9 1697.6C1128.8 1697.4 1128.8 1697.3 1128.7 1697.1C1128.5 1696.6 1128.4 1696.2 1128.2 1695.7C1127.9 1694.9 1127.7 1694.1 1127.6 1693.2C1127.6 1693.1 1127.3 1691.8 1127.3 1691.8C1127.4 1692.6 1127.4 1692.7 1127.3 1692.2C1127.3 1692 1127.3 1691.8 1127.2 1691.7C1127 1689.9 1127.1 1688.2 1127.2 1686.5C1127.3 1685.9 1127.3 1686 1127.1 1686.9C1127.1 1686.7 1127.2 1686.4 1127.2 1686.2C1127.3 1685.8 1127.3 1685.5 1127.4 1685.1C1127.6 1684.2 1127.9 1683.2 1128.2 1682.3C1129.1 1679.6 1127.2 1676.3 1124.4 1675.7C1121.4 1675 1118.7 1676.6 1117.8 1679.5C1115 1688 1116.1 1697.6 1120.5 1705.3C1121.9 1707.7 1125.4 1708.8 1127.9 1707.2C1130.6 1705.6 1131.5 1702.4 1130 1699.8Z" fill="#B3BCD0"/>
<path d="M1096.7 1729.3C1095.1 1730.3 1093.5 1731.2 1091.8 1732.1C1090.9 1732.6 1090 1733 1089.1 1733.4C1088.8 1733.6 1088.4 1733.7 1088.1 1733.9C1087.8 1734 1086.3 1734.8 1087.7 1734.1C1086.1 1734.9 1084.2 1735.5 1082.5 1736C1080.7 1736.6 1078.9 1737.1 1077.1 1737.5C1074.4 1738.2 1072.5 1741.4 1073.3 1744.1C1074.2 1746.9 1077 1748.6 1079.9 1747.9C1087.7 1746 1095.3 1742.8 1102.1 1738.6C1104.5 1737.1 1105.6 1733.7 1104 1731.2C1102.6 1728.8 1099.3 1727.7 1096.7 1729.3Z" fill="#B3BCD0"/>
<path d="M1075.6 1778.7C1071.7 1780.3 1068.3 1782.3 1065.2 1785.1C1062.5 1787.6 1060.2 1790.6 1058.5 1793.8C1057.8 1795.1 1057.6 1796.5 1058 1797.9C1058.3 1799.1 1059.3 1800.5 1060.5 1801.1C1061.7 1801.8 1063.3 1802.1 1064.6 1801.6C1065.9 1801.2 1067.2 1800.4 1067.8 1799.1C1068.5 1797.6 1069.4 1796.3 1070.4 1795C1070.1 1795.4 1069.8 1795.7 1069.6 1796.1C1071 1794.2 1072.7 1792.6 1074.6 1791.1C1074.2 1791.4 1073.9 1791.7 1073.5 1791.9C1075.3 1790.5 1077.3 1789.4 1079.4 1788.5C1079 1788.7 1078.5 1788.9 1078.1 1789C1078.2 1788.9 1078.4 1788.9 1078.5 1788.8C1079.9 1788.3 1081 1787.6 1081.7 1786.3C1082.4 1785.1 1082.7 1783.4 1082.2 1782.2C1081.8 1780.9 1081 1779.6 1079.7 1779C1078.6 1778.7 1076.9 1778.2 1075.6 1778.7Z" fill="#B3BCD0"/>
<path d="M1079.6 1832.2C1074.3 1836.8 1070.4 1842.6 1067.9 1849.1C1067.4 1850.3 1067.8 1852.2 1068.4 1853.2C1069.1 1854.3 1070.3 1855.4 1071.6 1855.7C1073 1856 1074.5 1855.9 1075.7 1855.2C1076.9 1854.4 1077.6 1853.4 1078.2 1852C1078.3 1851.7 1078.4 1851.4 1078.6 1851.1C1078.4 1851.5 1078.2 1852 1078.1 1852.4C1079.3 1849.4 1081 1846.7 1082.9 1844.1C1082.6 1844.5 1082.3 1844.8 1082.1 1845.2C1083.6 1843.2 1085.3 1841.4 1087.2 1839.8C1088.2 1838.9 1088.8 1837.3 1088.8 1836C1088.8 1834.7 1088.2 1833.1 1087.2 1832.2C1086.2 1831.3 1084.8 1830.6 1083.4 1830.6C1081.9 1830.7 1080.7 1831.2 1079.6 1832.2Z" fill="#B3BCD0"/>
<path d="M1106.4 1895.7C1106.1 1895.8 1105.8 1895.9 1105.6 1896.1C1106 1895.9 1106.5 1895.7 1106.9 1895.6C1103.9 1896.9 1100.8 1897.7 1097.5 1898.1C1098 1898 1098.5 1898 1098.9 1897.9C1096.7 1898.2 1094.5 1898.3 1092.2 1898.2C1089.4 1898.1 1086.7 1900.8 1086.8 1903.6C1086.9 1906.6 1089.2 1908.8 1092.2 1909C1099 1909.3 1105.6 1907.8 1111.8 1905.1C1113 1904.6 1114 1903 1114.3 1901.9C1114.7 1900.6 1114.5 1898.9 1113.8 1897.8C1113.1 1896.7 1112 1895.6 1110.6 1895.3C1109.1 1894.8 1107.8 1895.1 1106.4 1895.7Z" fill="#B3BCD0"/>
<path d="M1042.8 1870C1040.2 1860.2 1039.3 1851.3 1039.6 1840.9C1039.7 1838.1 1037.1 1835.4 1034.2 1835.5C1031.2 1835.6 1028.9 1837.9 1028.8 1840.9C1028.5 1851.6 1029.7 1862.5 1032.4 1872.9C1033.1 1875.6 1036.3 1877.5 1039 1876.7C1041.9 1875.7 1043.6 1872.9 1042.8 1870Z" fill="#B3BCD0"/>
<path d="M1158.5 1924.3C1159.9 1915.6 1160.8 1906.8 1161.1 1898C1161.2 1895.2 1158.6 1892.5 1155.7 1892.6C1152.7 1892.7 1150.4 1895 1150.3 1898C1150.2 1902.1 1149.9 1906.2 1149.5 1910.3C1149.3 1912.3 1149.1 1914.2 1148.8 1916.2C1148.6 1917.5 1148.9 1915.5 1148.7 1916.7C1148.6 1917.2 1148.6 1917.7 1148.5 1918.2C1148.3 1919.3 1148.2 1920.5 1148 1921.6C1147.5 1924.4 1148.7 1927.5 1151.8 1928.2C1154.5 1928.6 1158 1927.2 1158.5 1924.3Z" fill="#B3BCD0"/>
<path d="M1020.2 1886C1015.1 1883.5 1010.3 1880.6 1005.7 1877.2C1004.6 1876.4 1002.8 1876.3 1001.6 1876.7C1000.4 1877 999 1878 998.4 1879.2C997.7 1880.4 997.4 1882 997.9 1883.3C998.4 1884.7 999.2 1885.6 1000.4 1886.5C1004.9 1889.9 1009.8 1892.8 1014.9 1895.3C1016.2 1895.9 1017.6 1896.2 1019 1895.8C1020.2 1895.5 1021.6 1894.5 1022.2 1893.3C1023.4 1891 1022.9 1887.3 1020.2 1886Z" fill="#B3BCD0"/>
<path d="M995.5 1836.6C1002.3 1829.4 1008.1 1821.2 1012.6 1812.3C1013.9 1809.8 1013.3 1806.4 1010.7 1804.9C1008.3 1803.6 1004.7 1804.1 1003.3 1806.8C1001.2 1811 998.8 1815 996.1 1818.8C995.4 1819.7 994.8 1820.7 994.1 1821.6C993.9 1821.8 993.8 1822.1 993.6 1822.2C993.9 1821.9 994.1 1821.6 993.7 1822.1C993.3 1822.6 992.9 1823.1 992.6 1823.5C991.1 1825.3 989.5 1827.1 987.9 1828.8C986 1830.8 985.7 1834.4 987.9 1836.4C990 1838.5 993.5 1838.8 995.5 1836.6Z" fill="#B3BCD0"/>
<path d="M957.9 1827.6C956 1827.2 954.1 1826.6 952.3 1825.9C952.7 1826.1 953.2 1826.3 953.6 1826.4C951.4 1825.4 949.3 1824.2 947.4 1822.8C947.8 1823.1 948.1 1823.4 948.5 1823.6C946.6 1822.1 944.9 1820.4 943.4 1818.5C942.6 1817.5 940.8 1816.9 939.6 1816.9C938.3 1816.9 936.7 1817.5 935.8 1818.5C934.9 1819.5 934.2 1820.9 934.2 1822.3C934.3 1823.8 934.8 1824.9 935.8 1826.1C940.5 1832.1 947.6 1836.4 955.1 1837.9C956.5 1838.2 958 1838.1 959.2 1837.4C960.3 1836.7 961.4 1835.5 961.7 1834.2C962.2 1831.6 960.8 1828.2 957.9 1827.6Z" fill="#B3BCD0"/>
<path d="M964.8 1794.9C966.4 1790.3 968 1785.8 969.6 1781.2C970 1779.9 969.7 1778.2 969.1 1777.1C968.4 1776 967.2 1774.9 965.9 1774.6C964.5 1774.3 963 1774.4 961.8 1775.1C960.6 1775.9 959.8 1776.9 959.3 1778.3C957.7 1782.9 956.1 1787.4 954.5 1792C954.1 1793.3 954.4 1795 955 1796.1C955.7 1797.2 956.9 1798.3 958.2 1798.6C959.6 1798.9 961.1 1798.8 962.3 1798.1C963.6 1797.3 964.3 1796.3 964.8 1794.9Z" fill="#B3BCD0"/>
<path d="M1045.4 1770.7C1041.9 1764.4 1036.4 1759 1029.8 1755.9C1028.5 1755.3 1027.1 1755 1025.7 1755.4C1024.5 1755.7 1023.1 1756.7 1022.5 1757.9C1021.8 1759.1 1021.5 1760.7 1022 1762C1022.4 1763.3 1023.2 1764.6 1024.5 1765.2C1026.5 1766.1 1028.3 1767.3 1030 1768.6C1029.6 1768.3 1029.3 1768 1028.9 1767.8C1031 1769.4 1032.8 1771.2 1034.4 1773.3C1034.1 1772.9 1033.8 1772.6 1033.6 1772.2C1034.6 1773.5 1035.4 1774.8 1036.2 1776.2C1037.6 1778.7 1041.2 1779.7 1043.6 1778.1C1046 1776.4 1046.9 1773.3 1045.4 1770.7Z" fill="#B3BCD0"/>
<path d="M988.9 1745C991 1739.1 993 1733.2 995.1 1727.2C996 1724.5 994 1721.2 991.3 1720.6C988.3 1719.9 985.7 1721.5 984.7 1724.4C982.6 1730.3 980.6 1736.2 978.5 1742.2C977.6 1744.9 979.6 1748.2 982.3 1748.8C985.3 1749.5 987.9 1747.9 988.9 1745Z" fill="#B3BCD0"/>
<path d="M1058 1706C1057.3 1701.3 1055.4 1696.6 1052.7 1692.6C1051.9 1691.4 1050.9 1690.5 1049.5 1690.1C1048.2 1689.7 1046.5 1689.9 1045.4 1690.6C1044.3 1691.3 1043.2 1692.4 1042.9 1693.8C1042.6 1695.1 1042.6 1696.8 1043.4 1697.9C1044.6 1699.5 1045.5 1701.3 1046.3 1703.2C1046.1 1702.8 1045.9 1702.3 1045.8 1701.9C1046.7 1704.1 1047.3 1706.4 1047.7 1708.7C1047.9 1709.9 1049.1 1711.3 1050.2 1711.9C1051.4 1712.6 1053.1 1712.9 1054.3 1712.4C1055.6 1712 1056.9 1711.2 1057.5 1709.9C1057.7 1709.5 1057.9 1709 1058 1708.6C1058.3 1707.9 1058.3 1707 1058 1706Z" fill="#B3BCD0"/>
<path d="M1085.4 1671.4C1081.2 1669.2 1076.9 1667 1072.7 1664.8C1071.4 1664.1 1070 1663.9 1068.6 1664.3C1067.4 1664.6 1066 1665.6 1065.4 1666.8C1064.1 1669.3 1064.7 1672.8 1067.3 1674.2C1071.5 1676.4 1075.8 1678.6 1080 1680.8C1081.3 1681.5 1082.7 1681.7 1084.1 1681.3C1085.3 1681 1086.7 1680 1087.3 1678.8C1088.6 1676.3 1088 1672.8 1085.4 1671.4Z" fill="#B3BCD0"/>
<path d="M1010.2 1677.9C1009.8 1677.8 1009.5 1677.7 1009.1 1677.5C1009.5 1677.7 1010 1677.9 1010.4 1678C1009.6 1677.7 1008.9 1677.2 1008.2 1676.7C1008.6 1677 1008.9 1677.3 1009.3 1677.5C1008.5 1676.9 1007.8 1676.2 1007.2 1675.4C1007.5 1675.8 1007.8 1676.1 1008 1676.5C1007.4 1675.6 1006.8 1674.7 1006.4 1673.7C1006.6 1674.1 1006.8 1674.6 1006.9 1675C1006.5 1674.1 1006.3 1673.1 1006.1 1672.1C1006.2 1672.6 1006.2 1673.1 1006.3 1673.5C1006.2 1672.5 1006.2 1671.5 1006.3 1670.5C1006.2 1671 1006.2 1671.5 1006.1 1671.9C1006.2 1671.3 1006.3 1670.7 1006.5 1670.1C1007.4 1667.4 1005.5 1664.1 1002.7 1663.5C999.7 1662.8 997 1664.4 996.1 1667.3C994.7 1671.5 995.4 1676.2 997.4 1680.1C999.4 1684 1003 1687 1007.2 1688.2C1009.9 1689 1013.2 1687.2 1013.8 1684.4C1014.6 1681.7 1013.1 1678.8 1010.2 1677.9Z" fill="#B3BCD0"/>
<path d="M1134.4 1643C1137.6 1640.9 1140.8 1638.7 1144 1636.6C1145.2 1635.8 1146.1 1634.8 1146.5 1633.4C1146.9 1632.1 1146.7 1630.4 1146 1629.3C1145.3 1628.2 1144.2 1627.1 1142.8 1626.8C1141.4 1626.5 1139.9 1626.5 1138.7 1627.3C1135.5 1629.4 1132.3 1631.6 1129.1 1633.7C1127.9 1634.5 1127 1635.5 1126.6 1636.9C1126.2 1638.2 1126.4 1639.9 1127.1 1641C1127.8 1642.1 1128.9 1643.2 1130.3 1643.5C1131.6 1643.9 1133.2 1643.8 1134.4 1643Z" fill="#B3BCD0"/>
<path d="M1192.1 1648.4C1189.7 1649.2 1187.3 1650 1184.9 1650.8C1183.6 1651.2 1182.4 1652 1181.7 1653.3C1181.3 1653.9 1181.1 1654.6 1181.1 1655.3C1180.9 1656 1181 1656.7 1181.2 1657.4C1181.6 1658.7 1182.4 1660 1183.7 1660.6C1184.9 1661.3 1186.5 1661.6 1187.8 1661.1C1190.2 1660.3 1192.6 1659.5 1195 1658.7C1196.3 1658.3 1197.5 1657.5 1198.2 1656.2C1198.6 1655.6 1198.8 1654.9 1198.8 1654.2C1199 1653.5 1198.9 1652.8 1198.7 1652.1C1198.3 1650.8 1197.5 1649.5 1196.2 1648.9C1195 1648.3 1193.5 1648 1192.1 1648.4Z" fill="#B3BCD0"/>
</g>
<defs>
<clipPath id="clip0_6_1200">
<rect width="2495.9" height="2740.7" fill="white"/>
</clipPath>
</defs>
</svg>
